<?xml version="1.0" encoding="UTF-8"?><svg id="Layer_2" xmlns="http://www.w3.org/2000/svg" viewBox="0 0 147.51 130.92"><defs><style>.cls-1{fill:#fdf0f6;}</style></defs><g id="Layer_1-2"><g><path class="cls-1" d="M37.3,3.78c0,.1-.06,.19-.17,.19-.12,0-.17-.09-.17-.21,0-.09-.02-.38-.02-.42-.04-1.09-.58-1.42-1.74-1.42h-1.44l-1.53,7.72c-.07,.31-.13,.66-.13,.99,0,.87,.69,.84,1.35,.9,.09,.01,.15,.06,.15,.15s-.08,.15-.18,.15h-4.36c-.08,0-.15-.04-.15-.13,0-.1,.07-.15,.17-.17,.63-.05,1.06-.05,1.45-.45,.33-.34,.45-1,.53-1.44l1.53-7.72h-1.4c-.52,0-1.02,.08-1.5,.38-.52,.34-.75,.93-.99,1.47-.06,.15-.15,.21-.23,.21-.13,0-.15-.13-.12-.24l.81-2.64c.03-.09,.09-.13,.17-.13,.1,0,.13,.09,.15,.19,.02,.25,.17,.3,.42,.3h6.57c.35,0,.62-.02,.73-.36,.03-.07,.08-.13,.18-.13,.06,0,.13,.03,.13,.15v.03l-.22,2.64Z"/><path class="cls-1" d="M44.07,10.59c-.34,.6-1.15,1.35-1.95,1.35-.46,0-.75-.31-.75-.94,0-.15,.02-.33,.04-.52l.66-3.48c.04-.18,.07-.38,.07-.56,0-.46-.19-.72-.69-.72-.36,0-.67,.13-1.03,.4-.99,.73-1.73,2.1-2.08,3.92l-.31,1.51c-.03,.15-.12,.29-.33,.29h-.42c-.14,0-.24-.08-.24-.23,0-.03,0-.04,.02-.07l1.84-9.31c.05-.22,.09-.44,.09-.66-.02-.3-.17-.39-.42-.39-.1,0-.21,.02-.35,.03-.07,.03-.15,.03-.19,.03-.09,0-.15-.03-.15-.12,0-.07,.06-.12,.13-.17,.42-.19,1.42-.57,2-.72,.04-.02,.07-.02,.1-.02,.1,0,.17,.06,.17,.17,0,.02-.02,.04-.02,.06l-1.42,7.15c.66-1.1,1.81-2.5,3.16-2.5,.79,0,1.17,.43,1.17,1.18,0,.36-.07,.74-.15,1.08l-.57,2.94c-.03,.17-.04,.3-.04,.4,0,.29,.1,.5,.4,.5,.44,0,.88-.48,1.08-.77,.03-.06,.09-.1,.13-.1,.06,0,.1,.05,.1,.1,0,.05-.03,.1-.06,.17Z"/><path class="cls-1" d="M46,9.01c-.02,.12-.03,.25-.03,.39,0,.99,.43,1.87,1.54,1.87,.86,0,1.62-.64,2.08-1.26,.06-.08,.12-.1,.18-.1,.08,0,.14,.06,.14,.15,0,.04-.02,.09-.05,.15-.6,1.04-1.66,1.77-2.86,1.77-1.46,0-2.22-1-2.22-2.38,0-.41,.06-.84,.18-1.23,.47-1.56,2.02-3.28,3.72-3.28,.76,0,1.3,.36,1.3,1.15,0,1.81-2.32,2.76-3.99,2.77Zm.06-.48c.17,.02,.33,.03,.48,.03,1.36,0,2.5-.93,2.5-2.34,0-.46-.21-.78-.72-.78-1.33,0-2.07,2.04-2.26,3.09Z"/><path class="cls-1" d="M59.2,6.73l-2.65,5.05c-.09,.15-.21,.23-.33,.23-.15,0-.21-.1-.22-.26-.03-.52-.05-.97-.09-1.42-.07-.98-.13-1.78-.38-2.76-.09-.35-.3-.98-.54-1.27-.25-.33-.48-.35-.84-.35-.09,0-.19,0-.19-.12,0-.06,.06-.12,.12-.15,.4-.19,1.08-.48,1.44-.58,.04-.01,.09-.03,.12-.03,.09,0,.17,.04,.21,.12,.66,1.26,.99,3.6,1.02,5.05,.99-1.53,1.91-3.65,2.31-4.88,.07-.21,.21-.33,.38-.33s.27,.1,.31,.35c.09,.5-.03,.38,1.19,5.34,.96-.89,1.8-2.46,1.8-3.73,0-.21-.02-.42-.08-.62-.11-.39-.39-.73-.39-1.17,0-.39,.25-.73,.67-.73,.45,0,.64,.44,.67,.77,.01,.09,.01,.19,.01,.28,0,.85-.36,2.01-.92,3.17-.57,1.21-1.33,2.42-2.02,3.21-.08,.07-.18,.13-.29,.13s-.21-.07-.24-.24l-1.08-5.05Z"/><path class="cls-1" d="M65.25,9.01c-.01,.12-.03,.25-.03,.39,0,.99,.43,1.87,1.54,1.87,.85,0,1.62-.64,2.08-1.26,.06-.08,.12-.1,.18-.1,.08,0,.13,.06,.13,.15,0,.04-.01,.09-.04,.15-.6,1.04-1.67,1.77-2.87,1.77-1.46,0-2.22-1-2.22-2.38,0-.41,.06-.84,.18-1.23,.47-1.56,2.03-3.28,3.72-3.28,.76,0,1.3,.36,1.3,1.15,0,1.81-2.33,2.76-3.99,2.77Zm.06-.48c.17,.02,.33,.03,.48,.03,1.37,0,2.5-.93,2.5-2.34,0-.46-.21-.78-.72-.78-1.33,0-2.07,2.04-2.26,3.09Z"/><path class="cls-1" d="M75.46,10.29c-.03,.17-.04,.3-.04,.4,0,.3,.11,.5,.42,.5,.44,0,.88-.48,1.07-.77,.04-.06,.09-.1,.15-.1,.02,0,.03,.02,.06,.03,.03,.02,.03,.04,.03,.07,0,.05-.03,.1-.04,.17-.36,.6-1.17,1.35-1.95,1.35-.48,0-.77-.31-.77-.93,0-.16,.02-.34,.06-.54l.04-.21c-.67,.75-1.77,1.69-2.67,1.69-1.33,0-1.84-1.12-1.84-2.28,0-.3,.03-.62,.09-.9,.36-1.68,1.83-3.7,3.93-3.7,.53,0,1.06,.21,1.41,.61l.69-3.46c.04-.21,.08-.4,.08-.63,0-.3-.12-.42-.41-.42-.1,0-.22,.02-.34,.03-.09,.03-.15,.03-.21,.03-.08,0-.13-.03-.13-.12,0-.07,.04-.12,.13-.17,.42-.19,1.42-.57,2-.72,.03-.02,.08-.02,.1-.02,.11,0,.15,.06,.15,.17v.06l-2,9.85Zm-4.33-1.1c0,.93,.36,1.89,1.46,1.89,.46,0,.93-.3,1.32-.72,.5-.54,.75-1.11,.94-1.91,.17-.7,.26-1.12,.26-1.53,0-.85-.48-1.47-1.38-1.47-1.81,0-2.59,2.29-2.59,3.73Z"/><path class="cls-1" d="M83.23,10.29c-.03,.17-.04,.3-.04,.4,0,.3,.1,.5,.42,.5,.43,0,.88-.48,1.06-.77,.04-.06,.09-.1,.15-.1,.01,0,.03,.02,.06,.03s.03,.04,.03,.07c0,.05-.03,.1-.04,.17-.36,.6-1.17,1.35-1.95,1.35-.48,0-.76-.31-.76-.93,0-.16,.01-.34,.06-.54l.04-.21c-.67,.75-1.77,1.69-2.67,1.69-1.33,0-1.84-1.12-1.84-2.28,0-.3,.03-.62,.09-.9,.36-1.68,1.83-3.7,3.93-3.7,.53,0,1.07,.21,1.41,.61l.69-3.46c.04-.21,.08-.4,.08-.63,0-.3-.12-.42-.41-.42-.11,0-.23,.02-.34,.03-.09,.03-.15,.03-.21,.03-.08,0-.14-.03-.14-.12,0-.07,.04-.12,.14-.17,.42-.19,1.42-.57,1.99-.72,.03-.02,.08-.02,.11-.02,.1,0,.15,.06,.15,.17v.06l-1.99,9.85Zm-4.33-1.1c0,.93,.36,1.89,1.46,1.89,.46,0,.93-.3,1.32-.72,.5-.54,.75-1.11,.95-1.91,.17-.7,.25-1.12,.25-1.53,0-.85-.48-1.47-1.38-1.47-1.82,0-2.59,2.29-2.59,3.73Z"/><path class="cls-1" d="M88.65,10.59c-.35,.6-1.16,1.35-1.95,1.35-.46,0-.76-.31-.76-.94,0-.15,.03-.33,.06-.52l.62-3.09c.06-.3,.15-.65,.13-.95,0-.28-.13-.4-.41-.4-.09,0-.19,.02-.31,.03-.09,.02-.17,.03-.23,.03-.07,0-.13-.03-.13-.12,0-.08,.04-.13,.13-.17,.35-.17,1.4-.58,1.98-.72,.03-.02,.06-.02,.09-.02,.11,0,.17,.06,.17,.17v.07l-1,4.98c-.03,.17-.04,.3-.04,.4,0,.29,.1,.5,.41,.5,.43,0,.88-.48,1.08-.77,.03-.06,.09-.1,.14-.1,.06,0,.1,.05,.1,.1,0,.05-.03,.1-.06,.17Zm-.84-7.45c-.38,0-.6-.25-.6-.61,0-.47,.33-.93,.86-.93,.38,0,.6,.25,.6,.62,0,.46-.31,.93-.85,.93Z"/><path class="cls-1" d="M89.73,6.06c-.24,.04-.35,.04-.36-.06-.01-.09,.03-.15,.13-.19,.34-.17,1.4-.57,1.98-.72,.17-.05,.28,.03,.25,.22l-.46,2.31c.6-1.09,1.83-2.53,3.16-2.53,.75,0,1.12,.4,1.16,1.06,.01,.39-.06,.81-.15,1.2l-.58,3c-.12,.6,.03,.82,.33,.84,.45,.03,.92-.48,1.11-.77,.06-.07,.13-.13,.21-.07,.08,.04,.03,.15-.01,.24-.36,.6-1.17,1.35-1.95,1.35-.6,0-.9-.5-.71-1.47l.67-3.48c.04-.19,.06-.41,.04-.62-.01-.4-.21-.66-.67-.66-.36,0-.66,.15-1.02,.42-1,.73-1.79,2.4-2.07,3.79l-.33,1.65c-.03,.15-.1,.25-.31,.25h-.42c-.15,0-.29-.06-.24-.27l.83-4.17c.09-.48,.13-.76,.12-.96-.01-.38-.21-.46-.7-.38Z"/><path class="cls-1" d="M103.81,15.96c-.9,0-1.8-.29-2.67-.68-1.02,.72-2.38,1.12-3.58,1.12-1.02,0-2.38-.44-2.38-1.6,0-1.27,1.41-1.92,2.52-1.92,.49,0,1.03,.1,1.56,.36,.43,.21,1.25,.66,2.13,1.08,.13-.27,.21-.61,.21-.92,0-.96-1-1.18-1.93-1.24l-1.62-.09c-.63-.03-1.47-.25-1.47-1.05,0-.71,.97-1.19,1.75-1.53-.74-.31-1.14-.94-1.14-1.73,0-1.53,1.4-2.7,2.96-2.7,.41,0,.78,.09,1.09,.24,.42-.57,1.05-1.05,1.79-1.05,.33,0,.83,.12,.83,.52,0,.23-.15,.41-.39,.41-.11,0-.23-.03-.41-.17-.13-.1-.32-.2-.55-.2-.45,0-.79,.27-1.04,.62,.52,.36,.79,.98,.79,1.6,0,2.55-2.37,2.44-4.08,2.86-.42,.1-.67,.31-.67,.66,0,.4,.43,.51,.75,.54,.69,.05,1.51,.09,2.26,.14,1.05,.08,2.1,.39,2.1,1.56,0,.66-.27,1.27-.69,1.77,.83,.36,1.7,.64,2.37,.64,1.11,0,2.11-.66,2.11-1.86,0-.72-.55-1.27-1.02-1.51-.01-.02-.03-.03-.03-.06s.04-.08,.11-.08c.01,0,.04,0,.06,.02,.69,.31,1.2,1.06,1.2,1.81,.01,1.67-1.42,2.42-2.91,2.42Zm-5.37-2.13c-.6-.35-1.12-.5-1.54-.5-.69,0-1.1,.4-1.1,1.08,0,1.12,1.37,1.56,2.46,1.56,.87,0,1.86-.27,2.52-.85-.84-.4-1.64-.9-2.34-1.29Zm-.21-6.24c0,.79,.36,1.74,1.32,1.74,1.19,0,1.62-1.21,1.62-2.15,0-.81-.33-1.75-1.29-1.75-1.2,0-1.65,1.2-1.65,2.16Z"/><path class="cls-1" d="M109.09,11.98c-1.61,0-2.46-1.24-2.46-2.73,0-2.01,1.6-4.21,3.96-4.21,1.59,0,2.46,1.25,2.46,2.73,0,2-1.6,4.21-3.96,4.21Zm-1.26-2.61c0,.9,.33,2.22,1.47,2.22,1.84,0,2.55-2.49,2.55-3.95,0-.93-.33-2.23-1.5-2.23-1.83,0-2.52,2.52-2.52,3.96Z"/><path class="cls-1" d="M120.03,1.42c-.13,0-.33-.13-.64-.39-.2-.17-.48-.29-.86-.29-.63,0-1.17,.33-1.48,.85-.38,.63-.57,1.5-.66,2.07l-.29,1.62h1.98c.1,0,.17,.04,.17,.13,0,.03-.02,.06-.03,.1-.06,.12-.11,.21-.13,.27-.06,.09-.15,.15-.29,.15h-1.82l-1.78,8.56c-.03,.15-.12,.27-.33,.27h-.24c-.12,0-.24-.06-.24-.21v-.08l1.59-8.55h-1.11c-.08,0-.12-.06-.12-.13,0-.09,.08-.14,.17-.17,.3-.09,.6-.17,.9-.31,.27-.12,.33-.31,.39-.57,.29-1.11,.64-2.4,1.42-3.28,.62-.67,1.54-1.48,2.59-1.48,.45,0,.9,.1,1.21,.4,.11,.06,.15,.18,.15,.29,0,.29-.23,.73-.56,.73Z"/><path class="cls-1" d="M14.35,25.25c-.41,.46-.6,1.18-.82,2.28l-1.7,8.47c-.41,2.16-.98,4.39-2.38,6.17-1.08,1.39-2.57,2.76-4.61,2.76-1.1,0-1.73-.6-1.73-1.34,0-.58,.36-1.03,.98-1.03,.46,0,.7,.26,.96,.62,.26,.38,.67,.6,1.13,.6,1.25,0,2.04-1.03,2.45-2.11,.36-1.01,.62-2.14,.86-3.31l2.14-10.78c.12-.6,.22-1.18,.22-1.63,0-.36-.05-.65-.19-.84-.24-.31-.67-.46-1.15-.46-1.25,0-2.33,.82-2.78,1.97-.17,.41-.26,.82-.26,1.18,0,.72,.34,1.25,1.01,1.37,.38,.07,.65,.17,.82,.38,.1,.12,.14,.26,.14,.43,0,.53-.43,.84-.94,.84-.46,0-.98-.24-1.34-.72-.29-.41-.48-1.03-.48-1.78,0-.58,.12-1.2,.41-1.85,.77-1.66,2.23-2.45,3.89-2.45h5.3c.17,0,.26,.1,.26,.24,0,.19-.17,.24-.34,.26-.86,.05-1.39,.22-1.85,.72Z"/><path class="cls-1" d="M26.67,38.64c-.58,.96-1.87,2.16-3.12,2.16-.77,0-1.22-.5-1.22-1.51,0-.24,.02-.53,.1-.84l.29-1.51c-.77,1.46-2.71,3.89-4.75,3.89-1.32,0-2.04-.77-2.04-2.06,0-.58,.1-1.15,.22-1.68l.7-3.55c.14-.74,.22-1.1,.22-1.46,0-.48-.14-.72-.65-.72-.14,0-.31,.02-.5,.05-.14,.02-.26,.05-.36,.05-.12,0-.22-.05-.22-.19,0-.12,.07-.19,.22-.26,.55-.26,2.23-.91,3.17-1.15,.05,0,.1-.02,.14-.02,.17,0,.26,.1,.26,.26v.12l-1.39,6.96c-.1,.41-.17,.82-.17,1.25,0,.74,.29,1.3,1.13,1.3,.53,0,1.1-.24,1.54-.53,1.66-1.1,2.62-3.24,3.17-5.66,.14-.62,.24-1.1,.24-1.46v-.1c-.02-.43-.24-.6-.67-.6-.14,0-.31,.02-.5,.05-.14,.02-.26,.05-.34,.05-.14,0-.24-.05-.24-.19,0-.12,.07-.19,.22-.26,.55-.26,2.23-.91,3.17-1.15,.05,0,.1-.02,.14-.02,.17,0,.26,.1,.26,.26v.12l-1.61,7.97c-.05,.26-.07,.48-.07,.65,0,.48,.17,.79,.67,.79,.7,0,1.42-.77,1.7-1.22,.07-.1,.14-.17,.24-.17,.07,0,.14,.07,.14,.17,0,.07-.05,.17-.07,.26Z"/><path class="cls-1" d="M29.78,38.16c-.07,.26-.1,.48-.1,.65,0,.46,.17,.79,.67,.79,.7,0,1.42-.77,1.7-1.22,.07-.1,.14-.17,.24-.17s.17,.07,.17,.17c0,.07-.05,.17-.1,.26-.58,.96-1.85,2.16-3.12,2.16-.77,0-1.22-.5-1.22-1.49,0-.26,.02-.55,.1-.86l2.62-13.2c.07-.34,.14-.65,.14-1.01,0-.48-.19-.67-.67-.67-.14,0-.34,.02-.53,.05-.14,.05-.26,.05-.34,.05-.14,0-.24-.05-.24-.19,0-.1,.1-.19,.22-.26,.7-.31,2.3-.91,3.19-1.15,.07-.02,.12-.02,.17-.02,.17,0,.26,.1,.26,.26,0,.02,0,.07-.02,.1l-3.14,15.77Z"/><path class="cls-1" d="M38.45,38.64c-.55,.96-1.85,2.16-3.12,2.16-.74,0-1.22-.5-1.22-1.51,0-.24,.05-.53,.1-.84l.98-4.94c.1-.48,.24-1.03,.22-1.51,0-.46-.22-.65-.65-.65-.14,0-.31,.02-.5,.05-.14,.02-.26,.05-.36,.05-.12,0-.22-.05-.22-.19,0-.12,.07-.22,.22-.26,.55-.26,2.23-.94,3.17-1.15,.05-.02,.1-.02,.14-.02,.17,0,.26,.1,.26,.26v.12l-1.61,7.97c-.05,.26-.07,.48-.07,.65,0,.46,.17,.79,.65,.79,.7,0,1.42-.77,1.73-1.22,.05-.1,.14-.17,.22-.17,.1,0,.17,.07,.17,.17,0,.07-.05,.17-.1,.26Zm-1.34-11.93c-.6,0-.96-.41-.96-.98,0-.74,.53-1.49,1.37-1.49,.6,0,.96,.41,.96,.98,0,.74-.5,1.49-1.37,1.49Z"/><path class="cls-1" d="M49.06,38.59c-.58,.98-1.85,2.18-3.12,2.18-.77,0-1.2-.55-1.2-1.58v-.43c-.19,.31-.53,.72-.79,.96-.74,.72-1.56,1.13-2.64,1.13s-1.82-.79-1.82-1.87c0-.17,.02-.38,.05-.53,.46-2.16,2.78-3.29,6-3.86l.29-1.46c.22-1.18,.36-2.66-1.32-2.66-.89,0-1.97,.74-1.97,1.61,0,.22,.1,.43,.31,.6-.22,.43-.82,.91-1.42,.91-.36,0-.6-.17-.6-.55,0-1.46,3.12-3.26,4.51-3.26,1.25,0,2.26,.72,2.26,2.04,0,.41-.07,.82-.14,1.22l-1.01,5.11c-.05,.26-.07,.48-.07,.65,0,.46,.17,.79,.67,.79,.7,0,1.42-.79,1.7-1.22,.07-.1,.14-.17,.24-.17s.14,.07,.14,.14c0,.1-.02,.19-.07,.26Zm-3.65-3.34c-2.3,.17-4.25,1.1-4.22,3.12,0,.86,.53,1.25,1.25,1.25,1.42,0,2.33-1.22,2.59-2.5l.38-1.87Z"/><path class="cls-1" d="M67.25,27.75c-.19,0-.24-.14-.24-.29,0-.31,.05-.62,.05-.94,0-1.61-1.01-2.18-2.5-2.18-1.99,0-3.84,1.2-3.62,3.38,.12,1.25,1.37,2.38,2.5,3.24,2.18,1.68,3.91,3.17,3.91,6.1,0,3.91-3.29,6.62-7.54,6.62-3.26,0-5.67-1.78-5.67-4.49s2.38-4.7,4.99-4.73c1.2,0,2.64,.31,3.36,1.39,.24,.38,.36,.82,.36,1.22,0,.67-.31,1.3-1.03,1.3-.48,0-.79-.36-.79-.86,0-.24,.05-.46,.05-.7,0-.86-.53-1.56-1.99-1.56-2.18,.02-3.55,1.9-3.55,3.94,0,2.26,1.8,3.7,4.39,3.7,2.74,0,5.3-1.54,5.3-4.68,0-2.71-1.82-4.08-3.82-5.62-1.03-.82-2.52-2.18-2.52-4.18,0-3.34,3-4.82,5.98-4.82,1.18,0,2.09,.19,2.81,.43,.26,.1,.46,.19,.46,.55,0,.67-.34,2.06-.53,2.74-.05,.24-.17,.43-.36,.43Z"/><path class="cls-1" d="M70.15,36.12c-.02,.19-.05,.41-.05,.62,0,1.58,.7,3,2.47,3,1.37,0,2.59-1.03,3.34-2.02,.1-.12,.19-.17,.29-.17,.12,0,.22,.1,.22,.24,0,.07-.02,.14-.07,.24-.96,1.66-2.66,2.83-4.58,2.83-2.33,0-3.55-1.61-3.55-3.82,0-.65,.1-1.34,.29-1.97,.74-2.5,3.24-5.26,5.95-5.26,1.22,0,2.09,.58,2.09,1.85,0,2.9-3.72,4.42-6.38,4.44Zm.1-.77c.26,.02,.53,.05,.77,.05,2.18,0,4.01-1.49,4.01-3.74,0-.74-.34-1.25-1.15-1.25-2.14,0-3.31,3.26-3.62,4.94Z"/><path class="cls-1" d="M85.51,32.47l-4.25,8.09c-.14,.24-.34,.36-.53,.36-.24,0-.34-.17-.36-.41-.05-.84-.07-1.56-.14-2.28-.12-1.56-.22-2.86-.6-4.42-.14-.55-.48-1.56-.86-2.04-.41-.53-.77-.55-1.34-.55-.14,0-.31,0-.31-.19,0-.1,.1-.19,.19-.24,.65-.31,1.73-.77,2.3-.94,.07-.02,.14-.05,.19-.05,.14,0,.26,.07,.34,.19,1.06,2.02,1.58,5.76,1.63,8.09,1.58-2.45,3.05-5.83,3.7-7.8,.12-.34,.34-.53,.6-.53s.43,.17,.5,.55c.14,.79-.05,.6,1.9,8.54,1.54-1.42,2.88-3.94,2.88-5.98,0-.34-.02-.67-.12-.98-.17-.62-.62-1.18-.62-1.87,0-.62,.41-1.18,1.08-1.18,.72,0,1.03,.7,1.08,1.22,.02,.14,.02,.31,.02,.46,0,1.37-.58,3.22-1.46,5.06-.91,1.94-2.14,3.86-3.24,5.14-.12,.12-.29,.22-.46,.22s-.34-.12-.38-.38l-1.73-8.09Z"/><path class="cls-1" d="M102.34,38.59c-.58,.98-1.85,2.18-3.12,2.18-.77,0-1.2-.55-1.2-1.58v-.43c-.19,.31-.53,.72-.79,.96-.74,.72-1.56,1.13-2.64,1.13s-1.82-.79-1.82-1.87c0-.17,.02-.38,.05-.53,.46-2.16,2.79-3.29,6-3.86l.29-1.46c.22-1.18,.36-2.66-1.32-2.66-.89,0-1.97,.74-1.97,1.61,0,.22,.1,.43,.31,.6-.22,.43-.82,.91-1.42,.91-.36,0-.6-.17-.6-.55,0-1.46,3.12-3.26,4.51-3.26,1.25,0,2.26,.72,2.26,2.04,0,.41-.07,.82-.14,1.22l-1.01,5.11c-.05,.26-.07,.48-.07,.65,0,.46,.17,.79,.67,.79,.7,0,1.42-.79,1.7-1.22,.07-.1,.14-.17,.24-.17s.14,.07,.14,.14c0,.1-.02,.19-.07,.26Zm-3.65-3.34c-2.3,.17-4.25,1.1-4.22,3.12,0,.86,.53,1.25,1.25,1.25,1.42,0,2.33-1.22,2.59-2.5l.38-1.87Z"/><path class="cls-1" d="M111.07,32.07c-.48,0-.6-.79-1.51-.79-.67,0-1.1,.48-1.44,.94-1.34,1.87-2.33,5.14-2.9,7.94-.07,.29-.24,.48-.6,.48h-.7c-.22,0-.38-.1-.38-.36,0-.02,0-.07,.02-.12l1.42-7.15c.07-.36,.14-.72,.1-1.08-.02-.43-.29-.55-.62-.55-.17,0-.34,.02-.53,.05-.14,.02-.26,.02-.34,.02-.14,0-.24-.02-.24-.19,0-.1,.07-.22,.22-.26,.55-.26,2.16-.89,3.14-1.15,.05,0,.1-.02,.14-.02,.14,0,.24,.1,.24,.26,0,.05,0,.07-.02,.12-1.06,4.8-1.2,5.35-1.2,5.35h.12c.58-1.56,1.2-3,2.11-4.34,.53-.77,1.3-1.42,2.26-1.42,.7,0,1.54,.31,1.54,1.13,0,.53-.29,1.15-.82,1.15Z"/><path class="cls-1" d="M122.26,27.58l-2.14,10.58c-.05,.26-.07,.48-.07,.67,0,.46,.17,.77,.67,.77,.7,0,1.42-.77,1.7-1.22,.07-.1,.14-.17,.24-.17,.07,0,.14,.07,.14,.17,0,.07-.05,.17-.07,.26-.58,.96-1.87,2.16-3.12,2.16-.77,0-1.22-.5-1.22-1.49,0-.26,.02-.55,.1-.86l.07-.34c-1.08,1.22-2.83,2.71-4.27,2.71-2.14,0-2.95-1.78-2.95-3.65,0-.48,.05-.98,.14-1.44,.34-1.56,1.27-3.34,2.66-4.51-.6-.84-1.15-2.09-1.15-3.36,0-.7,.14-1.39,.53-2.04,.6-1.08,1.8-1.78,3.24-1.78,.72,0,1.49,.19,2.28,.6,.82,.43,1.46,.77,2.06,1.03,.31-1.27,.82-2.23,1.54-2.95,.7-.67,1.51-1.03,2.57-1.03,1.44,0,2.23,.98,2.23,2.4,0,2.21-1.68,3.55-3.84,3.58-.46,0-.89-.02-1.34-.1Zm-4.92,2.86c-2.9,0-4.15,3.67-4.15,5.98,0,1.49,.58,3.02,2.33,3.02,.74,0,1.49-.48,2.11-1.15,.79-.86,1.2-1.78,1.51-3.05,.26-1.13,.41-1.8,.41-2.45v-.29c-.1-1.18-.86-2.06-2.21-2.06Zm.43-.62c.86,0,1.7,.34,2.26,.98l.72-3.65c-.67-.29-1.39-.65-2.33-1.1-.72-.36-1.39-.5-1.99-.5-1.08,0-1.92,.5-2.38,1.22-.26,.46-.38,1.01-.38,1.56,0,.91,.31,1.87,.84,2.62,.91-.7,2.02-1.13,3.26-1.13Zm7.49-7.58c-.74,0-1.42,.43-1.9,1.39-.31,.55-.55,1.34-.74,2.33l-.1,.41c.53,.14,1.08,.26,1.61,.26,1.71,0,2.71-1.13,2.71-2.74,0-1.01-.55-1.66-1.58-1.66Z"/><path class="cls-1" d="M137.58,40.81c-.78,0-1.63-.33-2.55-1.37-1,.79-2.19,1.37-3.62,1.37-1.77,0-2.5-1.01-2.5-2.19,0-.1,0-.21,.01-.31,.14-1.19,.75-2.39,3.5-3.63-.25-.72-.34-1.25-.34-1.73,0-.81,.3-1.67,.9-2.23,.46-.45,1.08-.79,1.98-.79,1.47,0,1.96,.84,1.95,1.62-.01,1.53-1.72,2.31-2.92,2.83,.48,1.12,1.17,2.42,1.92,3.63,.33-.38,.66-.78,.97-1.26,.55-.87,.79-1.5,.79-1.92,0-.5-.33-.72-.88-.77-.1-.02-.17-.07-.17-.15,0-.06,.06-.13,.2-.13h3.48c.12,0,.18,.07,.18,.13,0,.08-.07,.15-.22,.17-.85,.09-1.12,.13-2.14,1.68-.51,.75-1.16,1.74-1.98,2.64,.72,1.04,1.54,1.41,2.33,1.41,.67,0,1.3-.3,1.77-.66,.06-.03,.11-.06,.15-.06,.08,0,.12,.04,.12,.12,0,.06-.02,.12-.08,.18-.29,.36-1.65,1.43-2.83,1.43Zm-3.96-3.51c-.48-.91-.83-1.63-1.06-2.25-1.88,1.06-2.06,2.17-2.07,2.76v.04c0,.81,.43,2.11,2.07,2.11,.78,0,1.53-.36,2.19-.87-.36-.48-.75-1.06-1.12-1.8Zm2.28-5.79c0-.99-.65-1.23-1.12-1.23-.66,0-1.42,.56-1.42,1.68l-.02,.04c0,.52,.2,1.24,.51,2.04,1.03-.49,2.05-1.27,2.05-2.53Z"/><path class="cls-1" d="M28.16,54.07c-.46,.58-.62,1.37-.77,2.35-.62,4.13-.91,7.37-.96,8.88-.02,.55-.05,1.01-.05,1.39,0,.7,.07,1.39,.91,1.39,.46,0,1.06-.22,1.7-.5,.05-.02,.12-.05,.17-.05,.14,0,.22,.1,.22,.22s-.1,.24-.34,.38c-1.03,.55-2.06,1.08-3.65,1.42-.14,.02-.29,.05-.41,.05-.53,0-.82-.31-.82-1.18v-.14c.14-3.6,.77-9.62,1.46-13.06l-8.28,14.11c-.1,.17-.24,.41-.53,.41-.24,0-.38-.19-.43-.48-.67-3.6-1.82-11.28-2.14-13.39-.79,3.02-1.87,6.1-2.83,8.33-1.78,4.2-3.98,6.7-7.18,6.7C1.9,70.9-.05,69.51,0,66.99c.02-1.68,1.13-3.34,2.93-3.34,.72,0,1.44,.36,1.44,1.18,0,.58-.46,1.03-1.18,1.03-.19,0-.36-.05-.55-.05-1.06,0-1.56,.72-1.56,1.7,0,1.58,1.56,2.62,3.24,2.62,2.74,0,4.68-2.38,6.36-6.26,1.08-2.52,2.02-5.54,2.62-7.97,.1-.43,.17-.79,.17-1.1,0-.34-.1-.62-.29-.86-.26-.34-.7-.48-1.22-.48-1.3,0-2.4,.77-2.9,1.99-.17,.41-.24,.82-.24,1.18,0,.72,.36,1.25,1.03,1.37,.34,.07,.62,.17,.77,.38,.07,.12,.1,.26,.1,.41,0,.22-.07,.43-.24,.6-.14,.17-.38,.24-.65,.24-.43,0-.96-.22-1.3-.7-.31-.41-.48-1.03-.48-1.73,0-.58,.12-1.22,.41-1.87,.77-1.66,2.11-2.5,3.77-2.5h3.41c.55,0,.65,.17,.65,.65,0,.96,.12,1.94,.26,2.88,.46,3.05,1.22,7.9,1.54,9.98l6.31-10.78c.5-.84,.98-1.58,1.25-2.16,.22-.43,.36-.58,.86-.58h3.84c.14,0,.24,.1,.24,.22,0,.19-.1,.26-.26,.26-.84,.07-1.61,.1-2.16,.77Z"/><path class="cls-1" d="M39.91,67.39c-.58,.98-1.85,2.18-3.12,2.18-.77,0-1.2-.55-1.2-1.58v-.43c-.19,.31-.53,.72-.79,.96-.74,.72-1.56,1.13-2.64,1.13s-1.82-.79-1.82-1.87c0-.17,.02-.38,.05-.53,.46-2.16,2.78-3.29,6-3.86l.29-1.46c.22-1.18,.36-2.66-1.32-2.66-.89,0-1.97,.74-1.97,1.61,0,.22,.1,.43,.31,.6-.22,.43-.82,.91-1.42,.91-.36,0-.6-.17-.6-.55,0-1.46,3.12-3.26,4.51-3.26,1.25,0,2.26,.72,2.26,2.04,0,.41-.07,.82-.14,1.22l-1.01,5.11c-.05,.26-.07,.48-.07,.65,0,.46,.17,.79,.67,.79,.7,0,1.42-.79,1.7-1.22,.07-.1,.14-.17,.24-.17s.14,.07,.14,.14c0,.1-.02,.19-.07,.26Zm-3.65-3.34c-2.3,.17-4.25,1.1-4.22,3.12,0,.86,.53,1.25,1.25,1.25,1.42,0,2.33-1.22,2.59-2.5l.38-1.87Z"/><path class="cls-1" d="M47.98,59.71c-.12,.19-.24,.34-.55,.34h-2.95l-1.18,5.81c-.07,.43-.19,.91-.19,1.34,0,.62,.22,1.15,.91,1.15,.89,0,1.99-.74,2.64-1.27,.05-.05,.12-.07,.17-.07,.12,0,.22,.07,.22,.19,0,.1-.05,.19-.14,.31-.65,.79-2.74,2.14-4.08,2.14-1.18,0-1.44-.86-1.44-1.85,0-.72,.14-1.44,.26-1.97,.46-2.04,.84-3.77,1.25-5.81h-1.58c-.1,0-.19-.12-.19-.22,0-.12,.07-.24,.26-.29,.53-.17,1.27-.55,1.82-1.1,.72-.7,1.18-1.44,1.49-1.94,.1-.17,.24-.26,.36-.26,.17,0,.29,.12,.29,.29,0,.1-.02,.19-.07,.31-.19,.55-.34,1.25-.53,2.16h3.19c.17,0,.26,.1,.26,.22,0,.05,0,.07-.02,.12-.07,.14-.14,.31-.19,.41Z"/><path class="cls-1" d="M55.59,59.71c-.12,.19-.24,.34-.55,.34h-2.95l-1.18,5.81c-.07,.43-.19,.91-.19,1.34,0,.62,.22,1.15,.91,1.15,.89,0,1.99-.74,2.64-1.27,.05-.05,.12-.07,.17-.07,.12,0,.22,.07,.22,.19,0,.1-.05,.19-.14,.31-.65,.79-2.74,2.14-4.08,2.14-1.18,0-1.44-.86-1.44-1.85,0-.72,.14-1.44,.26-1.97,.46-2.04,.84-3.77,1.25-5.81h-1.58c-.1,0-.19-.12-.19-.22,0-.12,.07-.24,.26-.29,.53-.17,1.27-.55,1.82-1.1,.72-.7,1.18-1.44,1.49-1.94,.1-.17,.24-.26,.36-.26,.17,0,.29,.12,.29,.29,0,.1-.02,.19-.07,.31-.19,.55-.34,1.25-.53,2.16h3.19c.17,0,.26,.1,.26,.22,0,.05,0,.07-.02,.12-.07,.14-.14,.31-.19,.41Z"/><path class="cls-1" d="M77.88,62.67c-.7,.05-1.13,.36-1.44,.74-.38,.46-.6,1.18-.79,2.26l-.38,2.18c-1.75,1.25-3.58,1.92-6.38,1.92-4.2,0-6.87-2.71-6.87-6.84,0-5.21,3.94-10.46,9.91-10.46,1.61,0,2.5,.26,3.62,.82,.22,.1,.46,.22,.67,.22,.48,0,.41-.55,.77-.55,.14,0,.22,.12,.22,.29v.02c-.1,1.49-.31,2.98-.72,4.37-.05,.17-.17,.26-.31,.26-.17,0-.24-.12-.24-.29,0-.26,.02-.53,.02-.79,0-2.23-1.27-3.7-4.18-3.7s-5.26,2.4-6.29,4.7c-.41,.91-.74,1.97-.91,2.95-.07,.58-.12,1.18-.12,1.78,0,3.41,1.58,6.05,5.35,6.05,2.02,0,3.5-.79,3.96-2.62,.14-.6,.22-1.13,.22-1.58,0-.53-.1-.96-.36-1.22-.38-.38-1.01-.43-1.73-.5-.14-.02-.22-.12-.22-.26,0-.17,.12-.26,.26-.26h5.98c.14,0,.26,.1,.26,.24,0,.17-.12,.26-.31,.29Z"/><path class="cls-1" d="M87.27,67.39c-.58,.98-1.85,2.18-3.12,2.18-.77,0-1.2-.55-1.2-1.58v-.43c-.19,.31-.53,.72-.79,.96-.74,.72-1.56,1.13-2.64,1.13s-1.82-.79-1.82-1.87c0-.17,.02-.38,.05-.53,.46-2.16,2.78-3.29,6-3.86l.29-1.46c.22-1.18,.36-2.66-1.32-2.66-.89,0-1.97,.74-1.97,1.61,0,.22,.1,.43,.31,.6-.22,.43-.82,.91-1.42,.91-.36,0-.6-.17-.6-.55,0-1.46,3.12-3.26,4.51-3.26,1.25,0,2.26,.72,2.26,2.04,0,.41-.07,.82-.14,1.22l-1.01,5.11c-.05,.26-.07,.48-.07,.65,0,.46,.17,.79,.67,.79,.7,0,1.42-.79,1.7-1.22,.07-.1,.14-.17,.24-.17s.14,.07,.14,.14c0,.1-.02,.19-.07,.26Zm-3.65-3.34c-2.3,.17-4.25,1.1-4.22,3.12,0,.86,.53,1.25,1.25,1.25,1.42,0,2.33-1.22,2.59-2.5l.38-1.87Z"/><path class="cls-1" d="M105.77,67.44c-.58,.96-1.85,2.16-3.12,2.16-.77,0-1.22-.5-1.22-1.51,0-.24,.02-.53,.1-.84l1.08-5.57c.07-.31,.12-.65,.1-.98-.05-.65-.36-1.06-1.08-1.06-.58,0-1.06,.22-1.63,.65-1.58,1.18-2.52,3.6-2.93,5.54l-.67,3.19c-.07,.38-.14,.41-.38,.41h-.84c-.19,0-.34-.1-.34-.34v-.14l1.44-7.27c.07-.26,.1-.55,.1-.82v-.17c-.02-.65-.38-1.06-1.1-1.06-.58,0-1.06,.22-1.63,.65-1.61,1.18-2.62,3.89-3,5.83l-.58,2.88c-.05,.24-.19,.43-.55,.43h-.7c-.19,0-.34-.1-.34-.34v-.14l1.32-6.62c.22-1.1,.22-1.51,.22-1.54,0-.46-.22-.65-.65-.65-.14,0-.31,.02-.5,.05-.14,.02-.26,.05-.36,.05-.12,0-.22-.05-.22-.19,0-.12,.07-.19,.22-.26,.55-.26,2.23-.91,3.17-1.15,.05,0,.1-.02,.14-.02,.17,0,.26,.1,.26,.26v.12l-.67,3.29c.96-1.73,2.54-3.65,4.73-3.65,1.2,0,1.78,.67,1.85,1.7v.26c0,.53-.1,1.06-.19,1.58l-.02,.05c.91-1.85,2.54-3.6,4.73-3.6,1.2,0,1.78,.67,1.85,1.7v.22c0,.55-.12,1.15-.22,1.7l-.96,4.7c-.1,.53-.22,1.44,.6,1.44,.7,0,1.42-.77,1.7-1.22,.07-.1,.14-.17,.24-.17s.14,.07,.14,.17c0,.07-.02,.17-.07,.26Z"/><path class="cls-1" d="M110.38,69.65c-1.63,0-2.9-.36-3.6-.74l2.95-14.86c.07-.34,.12-.65,.12-1.01,0-.48-.17-.67-.65-.67-.17,0-.34,.02-.55,.05-.12,.05-.24,.05-.34,.05-.12,0-.22-.05-.22-.19,0-.1,.1-.19,.22-.26,.67-.31,2.28-.91,3.19-1.15,.07-.02,.12-.02,.17-.02,.17,0,.26,.1,.26,.26,0,.02-.02,.07-.02,.1l-1.92,9.65c.86-.98,2.33-2.21,3.86-2.21,2.14,0,3.02,1.7,3.02,3.6,0,3.36-2.52,7.42-6.5,7.42Zm-.94-6.12l-.46,2.14c-.1,.53-.14,.98-.14,1.37,0,1.39,.65,1.97,1.85,1.97,3.14,0,4.39-3.55,4.39-6.02,0-1.46-.43-3.22-2.23-3.22s-3.05,1.92-3.41,3.77Z"/><path class="cls-1" d="M121.87,69.67c-2.57,0-3.94-1.99-3.94-4.37,0-3.22,2.57-6.74,6.34-6.74,2.54,0,3.94,1.99,3.94,4.37,0,3.19-2.57,6.74-6.34,6.74Zm-2.02-4.18c0,1.44,.53,3.55,2.35,3.55,2.95,0,4.08-3.98,4.08-6.31,0-1.49-.53-3.58-2.4-3.58-2.93,0-4.03,4.03-4.03,6.34Z"/><path class="cls-1" d="M140.09,76.04c-1.43-.18-2.88-.46-4.27-1.08-1.63,1.15-3.82,1.8-5.74,1.8-1.63,0-3.82-.7-3.82-2.57,0-2.04,2.26-3.07,4.03-3.07,.79,0,1.66,.17,2.5,.58,.7,.34,1.99,1.06,3.41,1.73,.22-.43,.34-.98,.34-1.46,0-1.54-1.61-1.9-3.1-1.99l-2.59-.14c-1.01-.05-2.35-.41-2.35-1.68,0-1.13,1.56-1.9,2.81-2.45-1.18-.5-1.82-1.51-1.82-2.76,0-2.45,2.23-4.32,4.73-4.32,.65,0,1.25,.14,1.75,.38,.67-.91,1.68-1.68,2.86-1.68,.53,0,1.32,.19,1.32,.84,0,.36-.24,.65-.62,.65-.17,0-.36-.05-.65-.26-.22-.17-.5-.31-.89-.31-.72,0-1.27,.43-1.66,.98,.84,.58,1.27,1.56,1.27,2.57,0,4.08-3.79,3.91-6.53,4.58-.67,.17-1.08,.5-1.08,1.06,0,.65,.7,.82,1.2,.86,1.1,.07,2.42,.14,3.62,.22,1.68,.12,3.36,.62,3.36,2.5,0,1.06-.43,2.04-1.1,2.83,1.32,.58,2.71,1,3.79,1.03,2.79,.07,6.38-.87,6.11-3.22-.13-1.14-.89-2.04-1.63-2.42-.02-.02-.05-.05-.05-.1s.07-.12,.17-.12c.02,0,.07,0,.1,.02,1.1,.5,1.72,1.72,1.92,2.9,.5,2.88-3.65,4.58-7.38,4.1Zm-8.59-3.41c-.96-.55-1.8-.79-2.47-.79-1.1,0-1.75,.65-1.75,1.73,0,1.8,2.18,2.5,3.94,2.5,1.39,0,2.98-.43,4.03-1.37-1.34-.65-2.62-1.44-3.74-2.06Zm-.34-9.98c0,1.27,.58,2.78,2.11,2.78,1.9,0,2.59-1.94,2.59-3.43,0-1.3-.53-2.81-2.06-2.81-1.92,0-2.64,1.92-2.64,3.46Z"/><path class="cls-1" d="M144.34,67.44c-.55,.96-1.85,2.16-3.12,2.16-.74,0-1.22-.5-1.22-1.51,0-.24,.05-.53,.1-.84l.98-4.94c.1-.48,.24-1.03,.22-1.51,0-.46-.22-.65-.65-.65-.14,0-.31,.02-.5,.05-.14,.02-.26,.05-.36,.05-.12,0-.22-.05-.22-.19,0-.12,.07-.22,.22-.26,.55-.26,2.23-.94,3.17-1.15,.05-.02,.1-.02,.14-.02,.17,0,.26,.1,.26,.26v.12l-1.61,7.97c-.05,.26-.07,.48-.07,.65,0,.46,.17,.79,.65,.79,.7,0,1.42-.77,1.73-1.22,.05-.1,.14-.17,.22-.17,.1,0,.17,.07,.17,.17,0,.07-.05,.17-.1,.26Zm-1.34-11.93c-.6,0-.96-.41-.96-.98,0-.74,.53-1.49,1.37-1.49,.6,0,.96,.41,.96,.98,0,.74-.5,1.49-1.37,1.49Z"/><path class="cls-1" d="M26.59,94.19c-.1,0-.12-.07-.12-.14,0-.16,.02-.31,.02-.47,0-.8-.5-1.09-1.25-1.09-1,0-1.92,.6-1.81,1.69,.06,.62,.68,1.19,1.25,1.62,1.09,.84,1.95,1.58,1.95,3.05,0,1.96-1.64,3.31-3.77,3.31-1.63,0-2.83-.89-2.83-2.24s1.19-2.35,2.49-2.36c.6,0,1.32,.16,1.68,.7,.12,.19,.18,.41,.18,.61,0,.34-.16,.65-.52,.65-.24,0-.4-.18-.4-.43,0-.12,.02-.23,.02-.35,0-.43-.26-.78-1-.78-1.09,.01-1.77,.95-1.77,1.97,0,1.13,.9,1.85,2.19,1.85,1.37,0,2.65-.77,2.65-2.34,0-1.35-.91-2.04-1.91-2.81-.52-.41-1.26-1.09-1.26-2.09,0-1.67,1.5-2.41,2.99-2.41,.59,0,1.04,.1,1.4,.22,.13,.05,.23,.1,.23,.28,0,.34-.17,1.03-.26,1.37-.02,.12-.08,.22-.18,.22Z"/><path class="cls-1" d="M32.27,99.61c-.29,.49-.92,1.09-1.56,1.09-.38,0-.6-.28-.6-.79v-.22c-.1,.16-.26,.36-.4,.48-.37,.36-.78,.56-1.32,.56s-.91-.4-.91-.94c0-.08,.01-.19,.02-.26,.23-1.08,1.39-1.64,3-1.93l.14-.73c.11-.59,.18-1.33-.66-1.33-.44,0-.98,.37-.98,.8,0,.11,.05,.22,.16,.3-.11,.22-.41,.46-.71,.46-.18,0-.3-.08-.3-.28,0-.73,1.56-1.63,2.25-1.63,.62,0,1.13,.36,1.13,1.02,0,.2-.04,.41-.07,.61l-.5,2.55c-.02,.13-.04,.24-.04,.32,0,.23,.08,.4,.34,.4,.35,0,.71-.4,.85-.61,.04-.05,.07-.08,.12-.08s.07,.04,.07,.07c0,.05-.01,.1-.04,.13Zm-1.82-1.67c-1.15,.08-2.12,.55-2.11,1.56,0,.43,.26,.62,.62,.62,.71,0,1.16-.61,1.29-1.25l.19-.94Z"/><path class="cls-1" d="M36.3,95.78c-.06,.1-.12,.17-.28,.17h-1.48l-.59,2.9c-.04,.22-.1,.46-.1,.67,0,.31,.11,.58,.46,.58,.44,0,1-.37,1.32-.64,.02-.02,.06-.04,.08-.04,.06,0,.11,.04,.11,.1,0,.05-.02,.1-.07,.16-.32,.4-1.37,1.07-2.04,1.07-.59,0-.72-.43-.72-.92,0-.36,.07-.72,.13-.98,.23-1.02,.42-1.88,.62-2.9h-.79s-.1-.06-.1-.11c0-.06,.04-.12,.13-.14,.26-.08,.64-.28,.91-.55,.36-.35,.59-.72,.74-.97,.05-.08,.12-.13,.18-.13,.08,0,.14,.06,.14,.14,0,.05-.01,.1-.04,.16-.1,.28-.17,.62-.26,1.08h1.6c.08,0,.13,.05,.13,.11,0,.02,0,.04-.01,.06-.04,.07-.07,.16-.1,.2Z"/><path class="cls-1" d="M42.25,99.64c-.29,.48-.94,1.08-1.56,1.08-.38,0-.61-.25-.61-.76,0-.12,.01-.26,.05-.42l.14-.76c-.38,.73-1.36,1.94-2.38,1.94-.66,0-1.02-.38-1.02-1.03,0-.29,.05-.58,.11-.84l.35-1.78c.07-.37,.11-.55,.11-.73,0-.24-.07-.36-.32-.36-.07,0-.16,.01-.25,.02-.07,.01-.13,.02-.18,.02-.06,0-.11-.02-.11-.1,0-.06,.04-.1,.11-.13,.28-.13,1.12-.46,1.58-.58,.02,0,.05-.01,.07-.01,.08,0,.13,.05,.13,.13v.06l-.7,3.48c-.05,.2-.08,.41-.08,.62,0,.37,.14,.65,.56,.65,.26,0,.55-.12,.77-.26,.83-.55,1.31-1.62,1.58-2.83,.07-.31,.12-.55,.12-.73v-.05c-.01-.22-.12-.3-.34-.3-.07,0-.16,.01-.25,.02-.07,.01-.13,.02-.17,.02-.07,0-.12-.02-.12-.1,0-.06,.04-.1,.11-.13,.28-.13,1.12-.46,1.58-.58,.02,0,.05-.01,.07-.01,.08,0,.13,.05,.13,.13v.06l-.8,3.98c-.02,.13-.04,.24-.04,.32,0,.24,.08,.4,.34,.4,.35,0,.71-.38,.85-.61,.04-.05,.07-.08,.12-.08,.04,0,.07,.04,.07,.08,0,.04-.02,.08-.04,.13Z"/><path class="cls-1" d="M46.74,96.35c-.24,0-.3-.4-.76-.4-.34,0-.55,.24-.72,.47-.67,.94-1.16,2.57-1.45,3.97-.04,.14-.12,.24-.3,.24h-.35c-.11,0-.19-.05-.19-.18,0-.01,0-.04,.01-.06l.71-3.57c.04-.18,.07-.36,.05-.54-.01-.22-.14-.28-.31-.28-.08,0-.17,.01-.26,.02-.07,.01-.13,.01-.17,.01-.07,0-.12-.01-.12-.1,0-.05,.04-.11,.11-.13,.28-.13,1.08-.44,1.57-.58,.02,0,.05-.01,.07-.01,.07,0,.12,.05,.12,.13,0,.02,0,.04-.01,.06-.53,2.4-.6,2.67-.6,2.67h.06c.29-.78,.6-1.5,1.06-2.17,.26-.38,.65-.71,1.13-.71,.35,0,.77,.16,.77,.56,0,.26-.14,.58-.41,.58Z"/><path class="cls-1" d="M51.26,99.4c-.02,.13-.04,.24-.04,.32,0,.24,.08,.4,.34,.4,.35,0,.71-.38,.85-.61,.04-.05,.07-.08,.12-.08,.01,0,.02,.01,.05,.02,.02,.01,.02,.04,.02,.06,0,.04-.02,.08-.04,.13-.29,.48-.94,1.08-1.56,1.08-.38,0-.61-.25-.61-.74,0-.13,.01-.28,.05-.43l.04-.17c-.54,.6-1.42,1.36-2.13,1.36-1.07,0-1.48-.9-1.48-1.82,0-.24,.02-.49,.07-.72,.29-1.34,1.46-2.96,3.14-2.96,.42,0,.85,.17,1.13,.49l.55-2.77c.04-.17,.06-.32,.06-.5,0-.24-.1-.34-.32-.34-.08,0-.18,.01-.28,.02-.07,.02-.12,.02-.17,.02-.06,0-.11-.02-.11-.1,0-.06,.04-.1,.11-.13,.34-.16,1.14-.46,1.6-.58,.02-.01,.06-.01,.08-.01,.08,0,.12,.05,.12,.13v.05l-1.59,7.88Zm-3.47-.88c0,.74,.29,1.51,1.16,1.51,.37,0,.74-.24,1.06-.58,.4-.43,.6-.89,.75-1.52,.13-.56,.2-.9,.2-1.22,0-.68-.38-1.18-1.1-1.18-1.45,0-2.07,1.83-2.07,2.99Z"/><path class="cls-1" d="M57.87,99.61c-.29,.49-.92,1.09-1.56,1.09-.38,0-.6-.28-.6-.79v-.22c-.1,.16-.26,.36-.4,.48-.37,.36-.78,.56-1.32,.56s-.91-.4-.91-.94c0-.08,.01-.19,.02-.26,.23-1.08,1.39-1.64,3-1.93l.14-.73c.11-.59,.18-1.33-.66-1.33-.44,0-.98,.37-.98,.8,0,.11,.05,.22,.16,.3-.11,.22-.41,.46-.71,.46-.18,0-.3-.08-.3-.28,0-.73,1.56-1.63,2.25-1.63,.62,0,1.13,.36,1.13,1.02,0,.2-.04,.41-.07,.61l-.5,2.55c-.02,.13-.04,.24-.04,.32,0,.23,.08,.4,.34,.4,.35,0,.71-.4,.85-.61,.04-.05,.07-.08,.12-.08s.07,.04,.07,.07c0,.05-.01,.1-.04,.13Zm-1.82-1.67c-1.15,.08-2.12,.55-2.11,1.56,0,.43,.26,.62,.62,.62,.71,0,1.16-.61,1.29-1.25l.19-.94Z"/><path class="cls-1" d="M60.11,101.23c-1.55,2.25-2.52,3.05-3.41,3.05-.58,0-.84-.29-.84-.6,0-.11,.04-.23,.1-.34,.13-.2,.29-.31,.43-.31,.13,0,.24,.08,.31,.22,.1,.24,.26,.35,.52,.35,1.08,0,2.18-1.97,2.33-3.33,.02-.26,.04-.5,.04-.76,0-.67-.1-1.31-.26-1.98-.13-.55-.26-1.07-.54-1.35-.19-.19-.4-.22-.67-.22-.08,0-.17-.01-.17-.11,0-.05,.05-.08,.1-.12,.31-.16,.9-.4,1.2-.48,.04-.01,.07-.02,.11-.02,.07,0,.12,.04,.14,.1,.5,1,.86,2.79,.86,4.21,0,.18,0,.35-.01,.5h.05c.67-.73,1.67-2.39,1.67-3.47,0-.11,0-.22-.02-.31-.07-.32-.3-.6-.3-.94s.2-.59,.5-.59c.47,.01,.59,.44,.59,.82,0,1.38-1.39,3.75-2.71,5.69Z"/><path class="cls-1" d="M63.55,102.04c-.13,.08-.42,.28-.58,.28-.06,0-.11-.02-.11-.1,0-.08,.12-.14,.2-.19,.43-.28,.96-.84,1.07-1.44-.08,.07-.2,.11-.32,.11-.31,0-.53-.23-.53-.54,0-.38,.35-.76,.74-.76,.46,0,.64,.3,.64,.72,0,.72-.52,1.48-1.12,1.92Z"/><path class="cls-1" d="M71.43,92.84c-.17-.19-.53-.23-.9-.25-.06-.01-.11-.06-.11-.12h0c0-.08,.07-.13,.14-.13h3.18c.08,0,.13,.05,.13,.12-.01,.08-.07,.12-.17,.13-.43,.02-.7,.11-.92,.36-.2,.23-.3,.58-.41,1.14l-.85,4.23c-.2,1.08-.49,2.19-1.19,3.08-.54,.7-1.28,1.37-2.3,1.37-.55,0-.86-.3-.86-.66v-.02c.01-.26,.18-.49,.49-.49,.23,0,.35,.13,.48,.31,.13,.19,.34,.3,.56,.3,.62,0,1.02-.52,1.22-1.06,.18-.5,.31-1.07,.43-1.65l1.07-5.4c.07-.32,.12-.6,.12-.82,0-.19-.04-.34-.12-.44Z"/><path class="cls-1" d="M78.94,99.64c-.29,.48-.94,1.08-1.56,1.08-.38,0-.61-.25-.61-.76,0-.12,.01-.26,.05-.42l.14-.76c-.38,.73-1.36,1.94-2.38,1.94-.66,0-1.02-.38-1.02-1.03,0-.29,.05-.58,.11-.84l.35-1.78c.07-.37,.11-.55,.11-.73,0-.24-.07-.36-.32-.36-.07,0-.16,.01-.25,.02-.07,.01-.13,.02-.18,.02-.06,0-.11-.02-.11-.1,0-.06,.04-.1,.11-.13,.28-.13,1.12-.46,1.58-.58,.02,0,.05-.01,.07-.01,.08,0,.13,.05,.13,.13v.06l-.7,3.48c-.05,.2-.08,.41-.08,.62,0,.37,.14,.65,.56,.65,.26,0,.55-.12,.77-.26,.83-.55,1.31-1.62,1.58-2.83,.07-.31,.12-.55,.12-.73v-.05c-.01-.22-.12-.3-.34-.3-.07,0-.16,.01-.25,.02-.07,.01-.13,.02-.17,.02-.07,0-.12-.02-.12-.1,0-.06,.04-.1,.11-.13,.28-.13,1.12-.46,1.58-.58,.02,0,.05-.01,.07-.01,.08,0,.13,.05,.13,.13v.06l-.8,3.98c-.02,.13-.04,.24-.04,.32,0,.24,.08,.4,.34,.4,.35,0,.71-.38,.85-.61,.04-.05,.07-.08,.12-.08,.04,0,.07,.04,.07,.08,0,.04-.02,.08-.04,.13Z"/><path class="cls-1" d="M80.51,99.4c-.04,.13-.05,.24-.05,.32,0,.23,.08,.4,.34,.4,.35,0,.71-.38,.85-.61,.04-.05,.07-.08,.12-.08s.08,.04,.08,.08c0,.04-.02,.08-.05,.13-.29,.48-.92,1.08-1.56,1.08-.38,0-.61-.25-.61-.74,0-.13,.01-.28,.05-.43l1.31-6.6c.04-.17,.07-.32,.07-.5,0-.24-.1-.34-.34-.34-.07,0-.17,.01-.26,.02-.07,.02-.13,.02-.17,.02-.07,0-.12-.02-.12-.1,0-.05,.05-.1,.11-.13,.35-.16,1.15-.46,1.59-.58,.04-.01,.06-.01,.08-.01,.08,0,.13,.05,.13,.13,0,.01,0,.04-.01,.05l-1.57,7.88Z"/><path class="cls-1" d="M84.48,101.23c-1.55,2.25-2.52,3.05-3.41,3.05-.58,0-.84-.29-.84-.6,0-.11,.04-.23,.1-.34,.13-.2,.29-.31,.43-.31,.13,0,.24,.08,.31,.22,.1,.24,.26,.35,.52,.35,1.08,0,2.18-1.97,2.33-3.33,.02-.26,.04-.5,.04-.76,0-.67-.1-1.31-.26-1.98-.13-.55-.26-1.07-.54-1.35-.19-.19-.4-.22-.67-.22-.08,0-.17-.01-.17-.11,0-.05,.05-.08,.1-.12,.31-.16,.9-.4,1.2-.48,.04-.01,.07-.02,.11-.02,.07,0,.12,.04,.14,.1,.5,1,.86,2.79,.86,4.21,0,.18,0,.35-.01,.5h.05c.67-.73,1.67-2.39,1.67-3.47,0-.11,0-.22-.02-.31-.07-.32-.3-.6-.3-.94s.2-.59,.5-.59c.47,.01,.59,.44,.59,.82,0,1.38-1.39,3.75-2.71,5.69Z"/><path class="cls-1" d="M89.83,100.63c-.06,0-.11-.05-.11-.1,0-.1,.07-.12,.16-.13,.38-.01,.94-.02,1.21-.35,.24-.28,.31-.53,.41-1.01l.7-3.44c.01-.06,.02-.12,.02-.17,0-.18-.1-.29-.35-.29h-1c-.07,0-.12-.06-.12-.11,0-.06,.05-.13,.16-.14,1.1-.12,1.62-.4,2.13-.74,.06-.05,.12-.06,.16-.06,.07,0,.11,.05,.11,.12v.04l-.95,4.77c-.06,.25-.08,.46-.08,.64,0,.22,.04,.37,.14,.49,.18,.23,.66,.24,1.01,.25,.06,.01,.1,.06,.1,.11,0,.06-.06,.12-.13,.12h-3.56Z"/><path class="cls-1" d="M94.76,102.04c-.13,.08-.42,.28-.58,.28-.06,0-.11-.02-.11-.1,0-.08,.12-.14,.2-.19,.43-.28,.96-.84,1.07-1.44-.08,.07-.2,.11-.32,.11-.31,0-.53-.23-.53-.54,0-.38,.35-.76,.74-.76,.46,0,.64,.3,.64,.72,0,.72-.52,1.48-1.12,1.92Z"/><path class="cls-1" d="M104.59,100.42c-.08,.13-.16,.22-.33,.22h-4.16c-.08,0-.18-.04-.18-.14,0-.1,.05-.14,.1-.18,.72-.52,2.06-1.54,2.65-2.09,.71-.65,1.48-1.21,1.49-2.27,0-.74-.48-1.1-1.36-1.1-.83,0-1.43,.44-1.89,1-.04,.04-.08,.06-.12,.06-.06,0-.11-.04-.11-.11,0-.02,.01-.06,.04-.1,.53-.89,1.51-1.66,2.69-1.66,.96,0,1.81,.4,1.81,1.49,0,1.3-1.61,2.39-2.65,3.2-.64,.5-.97,.78-1.32,1.08,.47,.04,1,.06,1.5,.06,1.33,0,1.64-.08,2.38-1.08,.02-.04,.08-.07,.13-.07,.06,0,.1,.04,.1,.08,0,.02,0,.05-.01,.07-.16,.38-.47,1.07-.73,1.54Z"/><path class="cls-1" d="M112.37,97.43c-.25,1.31-1.26,3.43-3.62,3.43-1.56,0-2.36-1.01-2.36-2.46,0-.32,.04-.65,.11-.96,.26-1.31,1.26-3.43,3.63-3.43,1.56,0,2.35,1.01,2.35,2.46,0,.32-.04,.65-.11,.96Zm-4.02-2.15c-.6,.82-.96,2.27-.96,3.44,0,.95,.24,1.82,1.43,1.82,.84,0,1.4-.53,1.71-.96,.59-.82,.94-2.27,.94-3.39,0-.96-.23-1.87-1.42-1.87-.85,0-1.39,.53-1.7,.96Z"/><path class="cls-1" d="M117.38,100.42c-.08,.13-.16,.22-.33,.22h-4.16c-.08,0-.18-.04-.18-.14,0-.1,.05-.14,.1-.18,.72-.52,2.06-1.54,2.65-2.09,.71-.65,1.48-1.21,1.49-2.27,0-.74-.48-1.1-1.36-1.1-.83,0-1.43,.44-1.89,1-.04,.04-.08,.06-.12,.06-.06,0-.11-.04-.11-.11,0-.02,.01-.06,.04-.1,.53-.89,1.51-1.66,2.69-1.66,.96,0,1.81,.4,1.81,1.49,0,1.3-1.61,2.39-2.65,3.2-.64,.5-.97,.78-1.32,1.08,.47,.04,1,.06,1.5,.06,1.33,0,1.64-.08,2.38-1.08,.02-.04,.08-.07,.13-.07,.06,0,.1,.04,.1,.08,0,.02,0,.05-.01,.07-.16,.38-.47,1.07-.73,1.54Z"/><path class="cls-1" d="M121.6,97.58h.16c1.02,0,1.58,.65,1.63,1.54v.14c0,1.9-1.97,3.85-4.15,3.85-.55,0-1.74-.18-1.74-.94,0-.32,.2-.58,.55-.58,.66,0,.41,1.07,1.85,1.07,1.73,0,2.42-1.67,2.42-2.9,0-.84-.37-1.49-1.31-1.49-.31,0-.67,.1-.9,.18h-.06c-.07,0-.12-.04-.12-.1,0-.05,.05-.11,.11-.14,.44-.23,.83-.4,1.24-.68,.65-.46,1.21-1.07,1.21-1.85,0-.68-.49-.94-1.1-.94-.67,0-1.36,.47-1.76,.91-.05,.05-.1,.11-.14,.17-.04,.05-.07,.07-.11,.07-.06,0-.11-.05-.11-.12,0-.02,0-.05,.02-.08,.54-.88,1.44-1.65,2.61-1.65,.78,0,1.5,.37,1.5,1.25,0,.98-.97,1.82-1.8,2.29Z"/><g><g><path class="cls-1" d="M77.44,128.05c-.23,.01-.48,.02-.73,.02-1.68,0-3.57-.49-4.94-2.24-.71-.91-1.32-2.33-1.8-3.55-.29,.01-.58-.01-.85-.05l-.44,2.23c-.06,.28-.12,.52-.12,.78,0,.02,.01,.05,.01,.08,.02,.62,.55,.62,1.07,.67,.06,.01,.11,.06,.11,.12,0,.08-.06,.13-.14,.13h-3.27c-.08,0-.12-.04-.12-.12s.07-.13,.16-.13c.43-.01,.72-.06,.98-.41,.22-.25,.29-.67,.37-1.09l1-4.92c.05-.26,.12-.61-.06-.85-.11-.13-.29-.22-.53-.22-.66,0-1.21,.44-1.49,1.03-.1,.22-.13,.42-.13,.6,0,.35,.17,.61,.49,.67,.23,.05,.43,.12,.43,.38,0,.11-.04,.22-.12,.31-.07,.07-.19,.12-.32,.12-.22,0-.47-.11-.65-.35-.14-.19-.23-.49-.23-.84,0-.29,.07-.62,.22-.96,.25-.53,.68-.9,1.14-1.13,.83-.4,2.06-.54,3.24-.54s2.94,.24,2.94,1.73c0,1.31-1.15,2.34-2.61,2.6,.37,1,.82,1.9,1.32,2.72,1.22,2.05,2.67,2.79,5.11,2.87,.08,0,.19,.04,.19,.14,0,.08-.06,.16-.2,.17Zm-6.62-9.86c-.28,0-.67,.02-.94,.11l-.68,3.47c.24,.08,.53,.13,.77,.13,1.52,0,2.61-.74,2.61-2.34,0-.88-.59-1.37-1.76-1.37Z"/><path class="cls-1" d="M78.46,125.23c-.29,.49-.92,1.09-1.56,1.09-.38,0-.6-.28-.6-.79v-.22c-.1,.16-.26,.36-.4,.48-.37,.36-.78,.56-1.32,.56s-.91-.4-.91-.94c0-.08,.01-.19,.02-.26,.23-1.08,1.39-1.64,3-1.93l.14-.73c.11-.59,.18-1.33-.66-1.33-.44,0-.98,.37-.98,.8,0,.11,.05,.22,.16,.3-.11,.22-.41,.46-.71,.46-.18,0-.3-.08-.3-.28,0-.73,1.56-1.63,2.25-1.63,.62,0,1.13,.36,1.13,1.02,0,.2-.04,.41-.07,.61l-.5,2.55c-.02,.13-.04,.24-.04,.32,0,.23,.08,.4,.34,.4,.35,0,.71-.4,.85-.61,.04-.05,.07-.08,.12-.08s.07,.04,.07,.07c0,.05-.01,.1-.04,.13Zm-1.82-1.67c-1.15,.08-2.12,.55-2.11,1.56,0,.43,.26,.62,.62,.62,.71,0,1.16-.61,1.29-1.25l.19-.94Z"/><path class="cls-1" d="M79.25,121.64c-.19,.04-.28,.04-.29-.05-.01-.07,.02-.12,.11-.16,.28-.13,1.12-.46,1.58-.58,.13-.04,.23,.02,.2,.18l-.37,1.85c.48-.88,1.46-2.03,2.53-2.03,.6,0,.9,.32,.92,.85,.01,.31-.05,.65-.12,.96l-.47,2.4c-.1,.48,.02,.66,.26,.67,.36,.02,.73-.38,.89-.61,.05-.06,.11-.11,.17-.06,.06,.04,.02,.12-.01,.19-.29,.48-.94,1.08-1.56,1.08-.48,0-.72-.4-.56-1.18l.54-2.78c.04-.16,.05-.32,.04-.49-.01-.32-.17-.53-.54-.53-.29,0-.53,.12-.82,.34-.8,.59-1.43,1.92-1.65,3.03l-.26,1.32c-.02,.12-.08,.2-.25,.2h-.34c-.12,0-.23-.05-.19-.22l.66-3.33c.07-.38,.11-.61,.1-.77-.01-.3-.17-.37-.56-.3Z"/><path class="cls-1" d="M89.21,122.28s-.08,.08-.13,.08c-.06,0-.11-.04-.11-.12s.01-.18,.01-.26c0-.47-.13-.85-.83-.85-1.39,0-2.11,2-2.11,3.11,0,.85,.35,1.55,1.3,1.55,.88,0,1.44-.67,1.67-1.01,.04-.06,.08-.08,.13-.08,.06,0,.12,.05,.12,.13,0,.02-.01,.06-.04,.11-.4,.77-1.28,1.43-2.31,1.43-1.2,0-1.8-.86-1.8-1.98,0-1.68,1.4-3.54,3.35-3.54,.19,0,1.04,.04,1.04,.34,.01,.24-.18,.86-.29,1.1Z"/><path class="cls-1" d="M95.53,125.26c-.28,.48-.92,1.08-1.56,1.08-.37,0-.6-.25-.6-.76,0-.12,.01-.26,.04-.42l.53-2.78c.04-.14,.06-.3,.06-.44,0-.37-.16-.58-.55-.58-.29,0-.54,.11-.83,.32-.79,.59-1.38,1.68-1.67,3.13l-.25,1.21c-.02,.12-.1,.23-.26,.23h-.34c-.11,0-.19-.06-.19-.18,0-.02,0-.04,.01-.06l1.47-7.45c.04-.18,.07-.35,.07-.53-.01-.24-.13-.31-.34-.31-.08,0-.17,.01-.28,.02-.06,.02-.12,.02-.16,.02-.07,0-.12-.02-.12-.1,0-.06,.05-.1,.11-.13,.34-.16,1.14-.46,1.59-.58,.04-.01,.06-.01,.08-.01,.08,0,.13,.05,.13,.13,0,.01-.01,.04-.01,.05l-1.14,5.72c.53-.88,1.45-2,2.53-2,.63,0,.93,.35,.93,.95,0,.29-.06,.59-.12,.86l-.46,2.35c-.02,.13-.04,.24-.04,.32,0,.23,.08,.4,.32,.4,.35,0,.71-.38,.86-.61,.02-.05,.07-.08,.11-.08,.05,0,.08,.04,.08,.08,0,.04-.02,.08-.05,.13Z"/></g><path class="cls-1" d="M44.77,121.99c0-4.91,4.02-8.93,8.93-8.93s8.94,4.02,8.94,8.93-4.03,8.93-8.94,8.93-8.93-4.02-8.93-8.93Zm17.33,0c0-4.63-3.76-8.4-8.4-8.4s-8.39,3.77-8.39,8.4,3.76,8.4,8.39,8.4,8.4-3.77,8.4-8.4Zm-11.29,2.36c-.02-.12-.04-.2-.04-.28,0-.19,.09-.28,.27-.28,.15,0,.23,.08,.28,.27,.16,.95,1.16,1.61,2.4,1.61s2.36-.81,2.36-1.75c0-.81-.52-1.23-1.88-1.58l-1.29-.33c-1.34-.34-1.92-.93-1.92-1.95,0-1.31,1.14-2.24,2.77-2.24,1.41,0,2.46,.69,2.7,1.73,.02,.11,.04,.21,.04,.29,0,.19-.09,.28-.27,.28-.15,0-.25-.09-.28-.27-.16-.91-1.03-1.52-2.19-1.52s-2.2,.8-2.2,1.76c0,.69,.47,1.1,1.62,1.42l1.25,.34c1.59,.43,2.23,.98,2.23,2,0,1.39-1.18,2.32-3,2.32-1.44,0-2.6-.76-2.84-1.83Z"/></g></g></g></svg>