<?xml version="1.0" encoding="UTF-8"?><svg id="Layer_2" xmlns="http://www.w3.org/2000/svg" viewBox="0 0 182.65 97.36"><defs><style>.cls-1{fill:#ffd95e;}</style></defs><g id="Layer_2-2"><g><path class="cls-1" d="M57.16,12.69c-.41,.74-1.39,1.64-2.34,1.64-.58,0-.92-.38-.92-1.13,0-.2,.02-.4,.07-.63l.79-4.18c.04-.22,.09-.45,.09-.68,0-.54-.25-.86-.83-.86-.43,0-.81,.18-1.26,.5-1.17,.86-2.05,2.52-2.5,4.7l-.36,1.82c-.04,.18-.14,.34-.4,.34h-.5c-.16,0-.29-.09-.29-.27v-.09l1.91-9.62c-.76-.22-2.5-.76-3.33-1.04l-.09-.02-1.69,8.41c-.07,.36-.16,.79-.16,1.19,0,1.04,.83,1.01,1.64,1.08,.09,.02,.16,.07,.16,.18s-.09,.18-.2,.18h-5.26c-.09,0-.18-.07-.16-.16,0-.13,.09-.18,.2-.2,.76-.05,1.28-.05,1.75-.54,.38-.41,.52-1.21,.63-1.73l1.75-8.86c-.59-.14-1.24-.27-1.87-.27-1.85,0-3.31,.86-3.31,2.88,0,1.21,.79,2.07,1.98,2.07,.38,0,.81-.09,1.15-.29,.16,.11,.23,.31,.23,.52,0,.72-.79,.95-1.39,.95-1.37,0-2.57-1.22-2.57-2.94,0-2.65,2.07-4.18,4.56-4.18,1.15,0,2.23,.27,3.12,.59,.65,.23,2.38,.83,3.11,1.08,.22-.97,.68-1.85,1.22-2.38,.52-.5,1.19-.77,1.93-.77,1.08,0,1.67,.72,1.67,1.78,0,1.76-1.33,2.68-2.97,2.7-.34,0-.65-.04-.92-.07l-.94,4.68c.81-1.31,2.2-3.01,3.82-3.01,.95,0,1.4,.52,1.4,1.44,0,.43-.11,.86-.18,1.3l-.68,3.53c-.04,.2-.05,.36-.05,.49,0,.34,.11,.59,.49,.59,.52,0,1.06-.59,1.3-.92,.04-.07,.11-.13,.16-.13,.07,0,.13,.05,.13,.11,0,.07-.04,.14-.07,.2ZM54.05,.4c-.56,0-1.06,.31-1.44,1.03-.22,.43-.38,1.01-.54,1.76l-.07,.31c.4,.11,.81,.18,1.21,.18,1.28,0,2.03-.83,2.03-2.03,0-.76-.43-1.24-1.19-1.24Z"/><path class="cls-1" d="M59.48,10.82c-.02,.14-.04,.31-.04,.47,0,1.19,.52,2.25,1.85,2.25,1.03,0,1.94-.77,2.5-1.51,.07-.09,.14-.13,.22-.13,.09,0,.16,.07,.16,.18,0,.05-.02,.11-.05,.18-.72,1.24-2,2.12-3.44,2.12-1.75,0-2.66-1.21-2.66-2.86,0-.49,.07-1.01,.22-1.48,.56-1.87,2.43-3.94,4.47-3.94,.92,0,1.57,.43,1.57,1.39,0,2.18-2.79,3.31-4.79,3.33Zm.07-.58c.2,.02,.4,.04,.58,.04,1.64,0,3.01-1.12,3.01-2.81,0-.56-.25-.94-.86-.94-1.6,0-2.48,2.45-2.72,3.71Z"/><path class="cls-1" d="M75.32,8.08l-3.19,6.07c-.11,.18-.25,.27-.4,.27-.18,0-.25-.13-.27-.31-.04-.63-.05-1.17-.11-1.71-.09-1.17-.16-2.14-.45-3.31-.11-.41-.36-1.17-.65-1.53-.31-.4-.58-.41-1.01-.41-.11,0-.23,0-.23-.14,0-.07,.07-.14,.14-.18,.49-.23,1.3-.58,1.73-.7,.05-.02,.11-.04,.14-.04,.11,0,.2,.05,.25,.14,.79,1.51,1.19,4.32,1.22,6.07,1.19-1.84,2.29-4.38,2.77-5.85,.09-.25,.25-.4,.45-.4s.32,.13,.38,.41c.11,.59-.04,.45,1.42,6.41,1.15-1.06,2.16-2.95,2.16-4.48,0-.25-.02-.5-.09-.74-.13-.47-.47-.88-.47-1.4,0-.47,.31-.88,.81-.88,.54,0,.77,.52,.81,.92,.02,.11,.02,.23,.02,.34,0,1.03-.43,2.41-1.1,3.8-.68,1.46-1.6,2.9-2.43,3.85-.09,.09-.22,.16-.34,.16s-.25-.09-.29-.29l-1.3-6.07Z"/><path class="cls-1" d="M82.36,10.82c-.02,.14-.04,.31-.04,.47,0,1.19,.52,2.25,1.85,2.25,1.03,0,1.94-.77,2.5-1.51,.07-.09,.14-.13,.22-.13,.09,0,.16,.07,.16,.18,0,.05-.02,.11-.05,.18-.72,1.24-2,2.12-3.44,2.12-1.75,0-2.66-1.21-2.66-2.86,0-.49,.07-1.01,.22-1.48,.56-1.87,2.43-3.94,4.47-3.94,.92,0,1.57,.43,1.57,1.39,0,2.18-2.79,3.31-4.79,3.33Zm.07-.58c.2,.02,.4,.04,.58,.04,1.64,0,3.01-1.12,3.01-2.81,0-.56-.25-.94-.86-.94-1.6,0-2.48,2.45-2.72,3.71Z"/><path class="cls-1" d="M94.4,12.35c-.04,.2-.05,.36-.05,.49,0,.36,.13,.59,.5,.59,.52,0,1.06-.58,1.28-.92,.05-.07,.11-.13,.18-.13,.02,0,.04,.02,.07,.04,.04,.02,.04,.05,.04,.09,0,.05-.04,.13-.05,.2-.43,.72-1.4,1.62-2.34,1.62-.58,0-.92-.38-.92-1.12,0-.2,.02-.41,.07-.65l.05-.25c-.81,.9-2.12,2.03-3.2,2.03-1.6,0-2.21-1.35-2.21-2.74,0-.36,.04-.74,.11-1.08,.43-2.02,2.2-4.45,4.72-4.45,.63,0,1.28,.25,1.69,.74l.83-4.16c.05-.25,.09-.49,.09-.76,0-.36-.14-.5-.49-.5-.13,0-.27,.02-.42,.04-.11,.04-.18,.04-.25,.04-.09,0-.16-.04-.16-.14,0-.09,.05-.14,.16-.2,.5-.23,1.71-.68,2.4-.86,.04-.02,.09-.02,.13-.02,.13,0,.18,.07,.18,.2v.07l-2.39,11.83Zm-5.2-1.31c0,1.12,.43,2.27,1.75,2.27,.56,0,1.12-.36,1.58-.86,.59-.65,.9-1.33,1.13-2.29,.2-.85,.31-1.35,.31-1.84,0-1.03-.58-1.76-1.66-1.76-2.18,0-3.11,2.75-3.11,4.48Z"/><path class="cls-1" d="M103.51,12.35c-.04,.2-.05,.36-.05,.49,0,.36,.13,.59,.5,.59,.52,0,1.06-.58,1.28-.92,.05-.07,.11-.13,.18-.13,.02,0,.04,.02,.07,.04s.04,.05,.04,.09c0,.05-.04,.13-.05,.2-.43,.72-1.4,1.62-2.34,1.62-.58,0-.92-.38-.92-1.12,0-.2,.02-.41,.07-.65l.05-.25c-.81,.9-2.12,2.03-3.21,2.03-1.6,0-2.21-1.35-2.21-2.74,0-.36,.04-.74,.11-1.08,.43-2.02,2.2-4.45,4.72-4.45,.63,0,1.28,.25,1.69,.74l.83-4.16c.05-.25,.09-.49,.09-.76,0-.36-.14-.5-.49-.5-.13,0-.27,.02-.41,.04-.11,.04-.18,.04-.25,.04-.09,0-.16-.04-.16-.14,0-.09,.05-.14,.16-.2,.5-.23,1.71-.68,2.39-.86,.04-.02,.09-.02,.13-.02,.13,0,.18,.07,.18,.2v.07l-2.39,11.83Zm-5.2-1.31c0,1.12,.43,2.27,1.75,2.27,.56,0,1.12-.36,1.58-.86,.59-.65,.9-1.33,1.13-2.29,.2-.85,.31-1.35,.31-1.84,0-1.03-.58-1.76-1.66-1.76-2.18,0-3.12,2.75-3.12,4.48Z"/><path class="cls-1" d="M109.79,12.71c-.41,.72-1.39,1.62-2.34,1.62-.56,0-.92-.38-.92-1.13,0-.18,.04-.4,.07-.63l.74-3.71c.07-.36,.18-.77,.16-1.13,0-.34-.16-.49-.49-.49-.11,0-.23,.02-.38,.04-.11,.02-.2,.04-.27,.04-.09,0-.16-.04-.16-.14,0-.09,.05-.16,.16-.2,.41-.2,1.67-.7,2.38-.86,.04-.02,.07-.02,.11-.02,.13,0,.2,.07,.2,.2v.09l-1.21,5.98c-.04,.2-.05,.36-.05,.49,0,.34,.13,.59,.49,.59,.52,0,1.06-.58,1.3-.92,.04-.07,.11-.13,.16-.13,.07,0,.13,.05,.13,.13,0,.05-.04,.13-.07,.2Zm-1.01-8.95c-.45,0-.72-.31-.72-.74,0-.56,.4-1.12,1.03-1.12,.45,0,.72,.31,.72,.74,0,.56-.38,1.12-1.03,1.12Z"/><path class="cls-1" d="M110.87,7.27c-.29,.05-.41,.05-.43-.07-.02-.11,.04-.18,.16-.23,.41-.2,1.67-.68,2.38-.86,.2-.05,.34,.04,.31,.27l-.56,2.77c.72-1.31,2.2-3.04,3.8-3.04,.9,0,1.35,.49,1.39,1.28,.02,.47-.07,.97-.18,1.44l-.7,3.6c-.14,.72,.04,.99,.4,1.01,.54,.04,1.1-.58,1.33-.92,.07-.09,.16-.16,.25-.09,.09,.05,.04,.18-.02,.29-.43,.72-1.4,1.62-2.34,1.62-.72,0-1.08-.59-.85-1.76l.81-4.18c.05-.23,.07-.49,.05-.74-.02-.49-.25-.79-.81-.79-.43,0-.79,.18-1.22,.5-1.21,.88-2.14,2.88-2.48,4.56l-.4,1.98c-.04,.18-.13,.31-.38,.31h-.5c-.18,0-.34-.07-.29-.32l.99-5.01c.11-.58,.16-.92,.14-1.15-.02-.45-.25-.56-.85-.45Z"/><path class="cls-1" d="M127.55,19.16c-1.08,0-2.16-.34-3.21-.81-1.22,.86-2.86,1.35-4.3,1.35-1.22,0-2.86-.52-2.86-1.93,0-1.53,1.69-2.3,3.02-2.3,.59,0,1.24,.13,1.87,.43,.52,.25,1.49,.79,2.56,1.3,.16-.32,.25-.74,.25-1.1,0-1.15-1.21-1.42-2.32-1.49l-1.94-.11c-.76-.04-1.76-.31-1.76-1.26,0-.85,1.17-1.42,2.11-1.84-.88-.38-1.37-1.13-1.37-2.07,0-1.84,1.67-3.24,3.55-3.24,.49,0,.94,.11,1.31,.29,.5-.68,1.26-1.26,2.14-1.26,.4,0,.99,.14,.99,.63,0,.27-.18,.49-.47,.49-.13,0-.27-.04-.49-.2-.16-.13-.38-.23-.67-.23-.54,0-.95,.32-1.24,.74,.63,.43,.95,1.17,.95,1.93,0,3.06-2.84,2.93-4.9,3.44-.5,.13-.81,.38-.81,.79,0,.49,.52,.61,.9,.65,.83,.05,1.82,.11,2.72,.16,1.26,.09,2.52,.47,2.52,1.87,0,.79-.32,1.53-.83,2.12,.99,.43,2.03,.77,2.84,.77,1.33,0,2.54-.79,2.54-2.23,0-.86-.67-1.53-1.22-1.82-.02-.02-.04-.04-.04-.07s.05-.09,.13-.09c.02,0,.05,0,.07,.02,.83,.38,1.44,1.28,1.44,2.18,.02,2-1.71,2.9-3.49,2.9Zm-6.45-2.56c-.72-.41-1.35-.59-1.85-.59-.83,0-1.31,.49-1.31,1.3,0,1.35,1.64,1.87,2.95,1.87,1.04,0,2.23-.32,3.03-1.03-1.01-.49-1.96-1.08-2.81-1.55Zm-.25-7.49c0,.95,.43,2.09,1.58,2.09,1.42,0,1.94-1.46,1.94-2.57,0-.97-.4-2.11-1.55-2.11-1.44,0-1.98,1.44-1.98,2.59Z"/><path class="cls-1" d="M133.67,14.39c-1.93,0-2.95-1.49-2.95-3.28,0-2.41,1.93-5.06,4.75-5.06,1.91,0,2.95,1.49,2.95,3.28,0,2.39-1.93,5.06-4.75,5.06Zm-1.51-3.13c0,1.08,.4,2.66,1.76,2.66,2.21,0,3.06-2.99,3.06-4.74,0-1.12-.4-2.68-1.8-2.68-2.2,0-3.02,3.03-3.02,4.75Z"/><path class="cls-1" d="M146.74,1.71c-.16,0-.4-.16-.77-.47-.25-.2-.59-.34-1.04-.34-.74,0-1.39,.4-1.76,1.03-.45,.76-.68,1.8-.79,2.48l-.34,1.94h2.38c.13,0,.2,.05,.2,.16,0,.04-.02,.07-.04,.13-.07,.14-.13,.25-.16,.32-.07,.13-.18,.18-.34,.18h-2.18l-1.01,5.69c-.29,1.58-.95,3.24-2.09,4.48-.76,.81-1.87,1.71-3.49,1.71-1.17,0-2.83-.54-2.83-2.29,0-1.06,.74-2.09,1.53-2.7,.04-.02,.05-.02,.07-.02,.04,0,.07,.02,.07,.05,0,.02-.02,.04-.02,.05-.38,.68-.56,1.33-.56,1.89,0,1.3,.9,2.21,2.43,2.21,2.36,0,3.06-2.07,3.42-4.03l1.26-7.06h-1.33c-.09,0-.14-.07-.14-.16,0-.11,.07-.16,.2-.2,.36-.11,.72-.2,1.08-.38,.32-.14,.38-.38,.47-.68,.34-1.33,.76-2.88,1.71-3.94,.74-.81,1.85-1.78,3.11-1.78,.54,0,1.08,.13,1.46,.49,.13,.09,.18,.22,.18,.34,0,.34-.27,.88-.67,.88Z"/><path class="cls-1" d="M18.98,31.98c-.51,.57-.75,1.47-1.02,2.85l-2.13,10.59c-.51,2.7-1.23,5.49-2.97,7.71-1.35,1.74-3.21,3.45-5.76,3.45-1.38,0-2.16-.75-2.16-1.68,0-.72,.45-1.29,1.23-1.29,.57,0,.87,.33,1.2,.78,.33,.48,.84,.75,1.41,.75,1.56,0,2.55-1.29,3.06-2.64,.45-1.26,.78-2.67,1.08-4.14l2.67-13.47c.15-.75,.27-1.47,.27-2.04,0-.45-.06-.81-.24-1.05-.3-.39-.84-.57-1.44-.57-1.56,0-2.91,1.02-3.48,2.46-.21,.51-.33,1.02-.33,1.47,0,.9,.42,1.56,1.26,1.71,.48,.09,.81,.21,1.02,.48,.12,.15,.18,.33,.18,.54,0,.66-.54,1.05-1.17,1.05-.57,0-1.23-.3-1.68-.9-.36-.51-.6-1.29-.6-2.22,0-.72,.15-1.5,.51-2.31,.96-2.07,2.79-3.06,4.86-3.06h6.63c.21,0,.33,.12,.33,.3,0,.24-.21,.3-.42,.33-1.08,.06-1.74,.27-2.31,.9Z"/><path class="cls-1" d="M34.37,48.72c-.72,1.2-2.34,2.7-3.9,2.7-.96,0-1.53-.63-1.53-1.89,0-.3,.03-.66,.12-1.05l.36-1.89c-.96,1.83-3.39,4.86-5.94,4.86-1.65,0-2.55-.96-2.55-2.58,0-.72,.12-1.44,.27-2.1l.87-4.44c.18-.93,.27-1.38,.27-1.83,0-.6-.18-.9-.81-.9-.18,0-.39,.03-.63,.06-.18,.03-.33,.06-.45,.06-.15,0-.27-.06-.27-.24,0-.15,.09-.24,.27-.33,.69-.33,2.79-1.14,3.96-1.44,.06,0,.12-.03,.18-.03,.21,0,.33,.12,.33,.33v.15l-1.74,8.7c-.12,.51-.21,1.02-.21,1.56,0,.93,.36,1.62,1.41,1.62,.66,0,1.38-.3,1.92-.66,2.07-1.38,3.27-4.05,3.96-7.08,.18-.78,.3-1.38,.3-1.83v-.12c-.03-.54-.3-.75-.84-.75-.18,0-.39,.03-.63,.06-.18,.03-.33,.06-.42,.06-.18,0-.3-.06-.3-.24,0-.15,.09-.24,.27-.33,.69-.33,2.79-1.14,3.96-1.44,.06,0,.12-.03,.18-.03,.21,0,.33,.12,.33,.33v.15l-2.01,9.96c-.06,.33-.09,.6-.09,.81,0,.6,.21,.99,.84,.99,.87,0,1.77-.96,2.13-1.53,.09-.12,.18-.21,.3-.21,.09,0,.18,.09,.18,.21,0,.09-.06,.21-.09,.33Z"/><path class="cls-1" d="M38.27,48.12c-.09,.33-.12,.6-.12,.81,0,.57,.21,.99,.84,.99,.87,0,1.77-.96,2.13-1.53,.09-.12,.18-.21,.3-.21s.21,.09,.21,.21c0,.09-.06,.21-.12,.33-.72,1.2-2.31,2.7-3.9,2.7-.96,0-1.53-.63-1.53-1.86,0-.33,.03-.69,.12-1.08l3.27-16.5c.09-.42,.18-.81,.18-1.26,0-.6-.24-.84-.84-.84-.18,0-.42,.03-.66,.06-.18,.06-.33,.06-.42,.06-.18,0-.3-.06-.3-.24,0-.12,.12-.24,.27-.33,.87-.39,2.88-1.14,3.99-1.44,.09-.03,.15-.03,.21-.03,.21,0,.33,.12,.33,.33,0,.03,0,.09-.03,.12l-3.93,19.71Z"/><path class="cls-1" d="M49.1,48.72c-.69,1.2-2.31,2.7-3.9,2.7-.93,0-1.53-.63-1.53-1.89,0-.3,.06-.66,.12-1.05l1.23-6.18c.12-.6,.3-1.29,.27-1.89,0-.57-.27-.81-.81-.81-.18,0-.39,.03-.63,.06-.18,.03-.33,.06-.45,.06-.15,0-.27-.06-.27-.24,0-.15,.09-.27,.27-.33,.69-.33,2.79-1.17,3.96-1.44,.06-.03,.12-.03,.18-.03,.21,0,.33,.12,.33,.33v.15l-2.01,9.96c-.06,.33-.09,.6-.09,.81,0,.57,.21,.99,.81,.99,.87,0,1.77-.96,2.16-1.53,.06-.12,.18-.21,.27-.21,.12,0,.21,.09,.21,.21,0,.09-.06,.21-.12,.33Zm-1.68-14.91c-.75,0-1.2-.51-1.2-1.23,0-.93,.66-1.86,1.71-1.86,.75,0,1.2,.51,1.2,1.23,0,.93-.63,1.86-1.71,1.86Z"/><path class="cls-1" d="M62.36,48.66c-.72,1.23-2.31,2.73-3.9,2.73-.96,0-1.5-.69-1.5-1.98v-.54c-.24,.39-.66,.9-.99,1.2-.93,.9-1.95,1.41-3.3,1.41s-2.28-.99-2.28-2.34c0-.21,.03-.48,.06-.66,.57-2.7,3.48-4.11,7.5-4.83l.36-1.83c.27-1.47,.45-3.33-1.65-3.33-1.11,0-2.46,.93-2.46,2.01,0,.27,.12,.54,.39,.75-.27,.54-1.02,1.14-1.77,1.14-.45,0-.75-.21-.75-.69,0-1.83,3.9-4.08,5.64-4.08,1.56,0,2.82,.9,2.82,2.55,0,.51-.09,1.02-.18,1.53l-1.26,6.39c-.06,.33-.09,.6-.09,.81,0,.57,.21,.99,.84,.99,.87,0,1.77-.99,2.13-1.53,.09-.12,.18-.21,.3-.21s.18,.09,.18,.18c0,.12-.03,.24-.09,.33Zm-4.56-4.17c-2.88,.21-5.31,1.38-5.28,3.9,0,1.08,.66,1.56,1.56,1.56,1.77,0,2.91-1.53,3.24-3.12l.48-2.34Z"/><path class="cls-1" d="M85.09,35.1c-.24,0-.3-.18-.3-.36,0-.39,.06-.78,.06-1.17,0-2.01-1.26-2.73-3.12-2.73-2.49,0-4.8,1.5-4.53,4.23,.15,1.56,1.71,2.97,3.12,4.05,2.73,2.1,4.89,3.96,4.89,7.62,0,4.89-4.11,8.28-9.42,8.28-4.08,0-7.08-2.22-7.08-5.61s2.97-5.88,6.24-5.91c1.5,0,3.3,.39,4.2,1.74,.3,.48,.45,1.02,.45,1.53,0,.84-.39,1.62-1.29,1.62-.6,0-.99-.45-.99-1.08,0-.3,.06-.57,.06-.87,0-1.08-.66-1.95-2.49-1.95-2.73,.03-4.44,2.37-4.44,4.92,0,2.82,2.25,4.62,5.49,4.62,3.42,0,6.63-1.92,6.63-5.85,0-3.39-2.28-5.1-4.77-7.02-1.29-1.02-3.15-2.73-3.15-5.22,0-4.17,3.75-6.03,7.47-6.03,1.47,0,2.61,.24,3.51,.54,.33,.12,.57,.24,.57,.69,0,.84-.42,2.58-.66,3.42-.06,.3-.21,.54-.45,.54Z"/><path class="cls-1" d="M89.27,45.57c-.03,.24-.06,.51-.06,.78,0,1.98,.87,3.75,3.09,3.75,1.71,0,3.24-1.29,4.17-2.52,.12-.15,.24-.21,.36-.21,.15,0,.27,.12,.27,.3,0,.09-.03,.18-.09,.3-1.2,2.07-3.33,3.54-5.73,3.54-2.91,0-4.44-2.01-4.44-4.77,0-.81,.12-1.68,.36-2.46,.93-3.12,4.05-6.57,7.44-6.57,1.53,0,2.61,.72,2.61,2.31,0,3.63-4.65,5.52-7.98,5.55Zm.12-.96c.33,.03,.66,.06,.96,.06,2.73,0,5.01-1.86,5.01-4.68,0-.93-.42-1.56-1.44-1.56-2.67,0-4.14,4.08-4.53,6.18Z"/><path class="cls-1" d="M108.37,41.01l-5.31,10.11c-.18,.3-.42,.45-.66,.45-.3,0-.42-.21-.45-.51-.06-1.05-.09-1.95-.18-2.85-.15-1.95-.27-3.57-.75-5.52-.18-.69-.6-1.95-1.08-2.55-.51-.66-.96-.69-1.68-.69-.18,0-.39,0-.39-.24,0-.12,.12-.24,.24-.3,.81-.39,2.16-.96,2.88-1.17,.09-.03,.18-.06,.24-.06,.18,0,.33,.09,.42,.24,1.32,2.52,1.98,7.2,2.04,10.11,1.98-3.06,3.81-7.29,4.62-9.75,.15-.42,.42-.66,.75-.66s.54,.21,.63,.69c.18,.99-.06,.75,2.37,10.68,1.92-1.77,3.6-4.92,3.6-7.47,0-.42-.03-.84-.15-1.23-.21-.78-.78-1.47-.78-2.34,0-.78,.51-1.47,1.35-1.47,.9,0,1.29,.87,1.35,1.53,.03,.18,.03,.39,.03,.57,0,1.71-.72,4.02-1.83,6.33-1.14,2.43-2.67,4.83-4.05,6.42-.15,.15-.36,.27-.57,.27s-.42-.15-.48-.48l-2.16-10.11Z"/><path class="cls-1" d="M129.91,48.66c-.72,1.23-2.31,2.73-3.9,2.73-.96,0-1.5-.69-1.5-1.98v-.54c-.24,.39-.66,.9-.99,1.2-.93,.9-1.95,1.41-3.3,1.41s-2.28-.99-2.28-2.34c0-.21,.03-.48,.06-.66,.57-2.7,3.48-4.11,7.5-4.83l.36-1.83c.27-1.47,.45-3.33-1.65-3.33-1.11,0-2.46,.93-2.46,2.01,0,.27,.12,.54,.39,.75-.27,.54-1.02,1.14-1.77,1.14-.45,0-.75-.21-.75-.69,0-1.83,3.9-4.08,5.64-4.08,1.56,0,2.82,.9,2.82,2.55,0,.51-.09,1.02-.18,1.53l-1.26,6.39c-.06,.33-.09,.6-.09,.81,0,.57,.21,.99,.84,.99,.87,0,1.77-.99,2.13-1.53,.09-.12,.18-.21,.3-.21s.18,.09,.18,.18c0,.12-.03,.24-.09,.33Zm-4.56-4.17c-2.88,.21-5.31,1.38-5.28,3.9,0,1.08,.66,1.56,1.56,1.56,1.77,0,2.91-1.53,3.24-3.12l.48-2.34Z"/><path class="cls-1" d="M140.47,40.5c-.6,0-.75-.99-1.89-.99-.84,0-1.38,.6-1.8,1.17-1.68,2.34-2.91,6.42-3.63,9.93-.09,.36-.3,.6-.75,.6h-.87c-.27,0-.48-.12-.48-.45,0-.03,0-.09,.03-.15l1.77-8.94c.09-.45,.18-.9,.12-1.35-.03-.54-.36-.69-.78-.69-.21,0-.42,.03-.66,.06-.18,.03-.33,.03-.42,.03-.18,0-.3-.03-.3-.24,0-.12,.09-.27,.27-.33,.69-.33,2.7-1.11,3.93-1.44,.06,0,.12-.03,.18-.03,.18,0,.3,.12,.3,.33,0,.06,0,.09-.03,.15-1.32,6-1.5,6.69-1.5,6.69h.15c.72-1.95,1.5-3.75,2.64-5.43,.66-.96,1.62-1.77,2.82-1.77,.87,0,1.92,.39,1.92,1.41,0,.66-.36,1.44-1.02,1.44Z"/><path class="cls-1" d="M151.32,48.12c-.06,.33-.09,.6-.09,.81,0,.6,.21,.99,.84,.99,.87,0,1.77-.96,2.13-1.53,.09-.12,.18-.21,.3-.21,.03,0,.06,.03,.12,.06,.06,.03,.06,.09,.06,.15,0,.09-.06,.21-.09,.33-.72,1.2-2.34,2.7-3.9,2.7-.96,0-1.53-.63-1.53-1.86,0-.33,.03-.69,.12-1.08l.09-.42c-1.35,1.5-3.54,3.39-5.34,3.39-2.67,0-3.69-2.25-3.69-4.56,0-.6,.06-1.23,.18-1.8,.72-3.36,3.66-7.41,7.86-7.41,1.05,0,2.13,.42,2.82,1.23l1.38-6.93c.09-.42,.15-.81,.15-1.26,0-.6-.24-.84-.81-.84-.21,0-.45,.03-.69,.06-.18,.06-.3,.06-.42,.06-.15,0-.27-.06-.27-.24,0-.15,.09-.24,.27-.33,.84-.39,2.85-1.14,3.99-1.44,.06-.03,.15-.03,.21-.03,.21,0,.3,.12,.3,.33v.12l-3.99,19.71Zm-8.67-2.19c0,1.86,.72,3.78,2.91,3.78,.93,0,1.86-.6,2.64-1.44,.99-1.08,1.5-2.22,1.89-3.81,.33-1.41,.51-2.25,.51-3.06,0-1.71-.96-2.94-2.76-2.94-3.63,0-5.19,4.59-5.19,7.47Z"/><path class="cls-1" d="M172.78,51.42c-.94,0-1.96-.4-3.06-1.64-1.21,.95-2.63,1.64-4.34,1.64-2.12,0-3.01-1.21-3.01-2.63,0-.13,0-.25,.02-.38,.16-1.42,.9-2.86,4.2-4.36-.31-.86-.41-1.49-.41-2.07,0-.97,.36-2,1.08-2.68,.56-.54,1.3-.95,2.38-.95,1.76,0,2.36,1.01,2.34,1.94-.02,1.84-2.07,2.77-3.51,3.4,.58,1.35,1.41,2.9,2.3,4.36,.4-.45,.79-.94,1.17-1.51,.67-1.04,.95-1.8,.95-2.3,0-.59-.4-.86-1.06-.92-.13-.02-.2-.09-.2-.18,0-.07,.07-.16,.23-.16h4.18c.14,0,.22,.09,.22,.16,0,.09-.09,.18-.27,.2-1.03,.11-1.35,.16-2.57,2.02-.61,.9-1.39,2.09-2.38,3.17,.86,1.24,1.85,1.69,2.79,1.69,.81,0,1.57-.36,2.12-.79,.07-.04,.13-.07,.18-.07,.09,0,.14,.05,.14,.14,0,.07-.02,.14-.09,.22-.34,.43-1.98,1.71-3.4,1.71Zm-4.75-4.21c-.58-1.1-.99-1.96-1.28-2.7-2.25,1.28-2.47,2.61-2.48,3.31v.05c0,.97,.52,2.54,2.48,2.54,.94,0,1.84-.43,2.63-1.04-.43-.58-.9-1.28-1.35-2.16Zm2.74-6.95c0-1.19-.77-1.48-1.35-1.48-.79,0-1.71,.67-1.71,2.02l-.02,.05c0,.63,.23,1.49,.61,2.45,1.24-.59,2.47-1.53,2.47-3.04Z"/><path class="cls-1" d="M35.19,69.01c-.57,.72-.78,1.71-.96,2.94-.78,5.16-1.14,9.21-1.2,11.1-.03,.69-.06,1.26-.06,1.74,0,.87,.09,1.74,1.14,1.74,.57,0,1.32-.27,2.13-.63,.06-.03,.15-.06,.21-.06,.18,0,.27,.12,.27,.27s-.12,.3-.42,.48c-1.29,.69-2.58,1.35-4.56,1.77-.18,.03-.36,.06-.51,.06-.66,0-1.02-.39-1.02-1.47v-.18c.18-4.5,.96-12.03,1.83-16.32l-10.35,17.64c-.12,.21-.3,.51-.66,.51-.3,0-.48-.24-.54-.6-.84-4.5-2.28-14.1-2.67-16.74-.99,3.78-2.34,7.62-3.54,10.41-2.22,5.25-4.98,8.37-8.97,8.37C2.37,90.04-.06,88.3,0,85.15c.03-2.1,1.41-4.17,3.66-4.17,.9,0,1.8,.45,1.8,1.47,0,.72-.57,1.29-1.47,1.29-.24,0-.45-.06-.69-.06-1.32,0-1.95,.9-1.95,2.13,0,1.98,1.95,3.27,4.05,3.27,3.42,0,5.85-2.97,7.95-7.83,1.35-3.15,2.52-6.93,3.27-9.96,.12-.54,.21-.99,.21-1.38,0-.42-.12-.78-.36-1.08-.33-.42-.87-.6-1.53-.6-1.62,0-3,.96-3.63,2.49-.21,.51-.3,1.02-.3,1.47,0,.9,.45,1.56,1.29,1.71,.42,.09,.78,.21,.96,.48,.09,.15,.12,.33,.12,.51,0,.27-.09,.54-.3,.75-.18,.21-.48,.3-.81,.3-.54,0-1.2-.27-1.62-.87-.39-.51-.6-1.29-.6-2.16,0-.72,.15-1.53,.51-2.34,.96-2.07,2.64-3.12,4.71-3.12h4.26c.69,0,.81,.21,.81,.81,0,1.2,.15,2.43,.33,3.6,.57,3.81,1.53,9.87,1.92,12.48l7.89-13.47c.63-1.05,1.23-1.98,1.56-2.7,.27-.54,.45-.72,1.08-.72h4.8c.18,0,.3,.12,.3,.27,0,.24-.12,.33-.33,.33-1.05,.09-2.01,.12-2.7,.96Z"/><path class="cls-1" d="M49.89,85.66c-.72,1.23-2.31,2.73-3.9,2.73-.96,0-1.5-.69-1.5-1.98v-.54c-.24,.39-.66,.9-.99,1.2-.93,.9-1.95,1.41-3.3,1.41s-2.28-.99-2.28-2.34c0-.21,.03-.48,.06-.66,.57-2.7,3.48-4.11,7.5-4.83l.36-1.83c.27-1.47,.45-3.33-1.65-3.33-1.11,0-2.46,.93-2.46,2.01,0,.27,.12,.54,.39,.75-.27,.54-1.02,1.14-1.77,1.14-.45,0-.75-.21-.75-.69,0-1.83,3.9-4.08,5.64-4.08,1.56,0,2.82,.9,2.82,2.55,0,.51-.09,1.02-.18,1.53l-1.26,6.39c-.06,.33-.09,.6-.09,.81,0,.57,.21,.99,.84,.99,.87,0,1.77-.99,2.13-1.53,.09-.12,.18-.21,.3-.21s.18,.09,.18,.18c0,.12-.03,.24-.09,.33Zm-4.56-4.17c-2.88,.21-5.31,1.38-5.28,3.9,0,1.08,.66,1.56,1.56,1.56,1.77,0,2.91-1.53,3.24-3.12l.48-2.34Z"/><path class="cls-1" d="M59.97,76.06c-.15,.24-.3,.42-.69,.42h-3.69l-1.47,7.26c-.09,.54-.24,1.14-.24,1.68,0,.78,.27,1.44,1.14,1.44,1.11,0,2.49-.93,3.3-1.59,.06-.06,.15-.09,.21-.09,.15,0,.27,.09,.27,.24,0,.12-.06,.24-.18,.39-.81,.99-3.42,2.67-5.1,2.67-1.47,0-1.8-1.08-1.8-2.31,0-.9,.18-1.8,.33-2.46,.57-2.55,1.05-4.71,1.56-7.26h-1.98c-.12,0-.24-.15-.24-.27,0-.15,.09-.3,.33-.36,.66-.21,1.59-.69,2.28-1.38,.9-.87,1.47-1.8,1.86-2.43,.12-.21,.3-.33,.45-.33,.21,0,.36,.15,.36,.36,0,.12-.03,.24-.09,.39-.24,.69-.42,1.56-.66,2.7h3.99c.21,0,.33,.12,.33,.27,0,.06,0,.09-.03,.15-.09,.18-.18,.39-.24,.51Z"/><path class="cls-1" d="M69.48,76.06c-.15,.24-.3,.42-.69,.42h-3.69l-1.47,7.26c-.09,.54-.24,1.14-.24,1.68,0,.78,.27,1.44,1.14,1.44,1.11,0,2.49-.93,3.3-1.59,.06-.06,.15-.09,.21-.09,.15,0,.27,.09,.27,.24,0,.12-.06,.24-.18,.39-.81,.99-3.42,2.67-5.1,2.67-1.47,0-1.8-1.08-1.8-2.31,0-.9,.18-1.8,.33-2.46,.57-2.55,1.05-4.71,1.56-7.26h-1.98c-.12,0-.24-.15-.24-.27,0-.15,.09-.3,.33-.36,.66-.21,1.59-.69,2.28-1.38,.9-.87,1.47-1.8,1.86-2.43,.12-.21,.3-.33,.45-.33,.21,0,.36,.15,.36,.36,0,.12-.03,.24-.09,.39-.24,.69-.42,1.56-.66,2.7h3.99c.21,0,.33,.12,.33,.27,0,.06,0,.09-.03,.15-.09,.18-.18,.39-.24,.51Z"/><path class="cls-1" d="M98.14,79.46c-.9,.06-1.46,.46-1.86,.96-.5,.59-.78,1.52-1.02,2.92l-.5,2.82c-2.26,1.61-4.62,2.48-8.25,2.48-5.43,0-8.87-3.5-8.87-8.84,0-6.73,5.08-13.52,12.81-13.52,2.08,0,3.22,.34,4.68,1.05,.28,.12,.59,.28,.87,.28,.62,0,.53-.71,.99-.71,.19,0,.28,.16,.28,.37v.03c-.12,1.92-.4,3.84-.93,5.64-.06,.22-.22,.34-.4,.34-.22,0-.31-.16-.31-.37,0-.34,.03-.68,.03-1.02,0-2.88-1.64-4.77-5.4-4.77s-6.79,3.1-8.12,6.08c-.53,1.18-.96,2.54-1.18,3.81-.09,.74-.16,1.52-.16,2.29,0,4.4,2.05,7.81,6.91,7.81,2.6,0,4.53-1.02,5.12-3.38,.19-.77,.28-1.46,.28-2.05,0-.68-.12-1.24-.46-1.58-.5-.5-1.3-.56-2.23-.65-.19-.03-.28-.16-.28-.34,0-.22,.16-.34,.34-.34h7.72c.19,0,.34,.12,.34,.31,0,.22-.15,.34-.4,.37Z"/><path class="cls-1" d="M111.16,85.66c-.72,1.23-2.31,2.73-3.9,2.73-.96,0-1.5-.69-1.5-1.98v-.54c-.24,.39-.66,.9-.99,1.2-.93,.9-1.95,1.41-3.3,1.41s-2.28-.99-2.28-2.34c0-.21,.03-.48,.06-.66,.57-2.7,3.48-4.11,7.5-4.83l.36-1.83c.27-1.47,.45-3.33-1.65-3.33-1.11,0-2.46,.93-2.46,2.01,0,.27,.12,.54,.39,.75-.27,.54-1.02,1.14-1.77,1.14-.45,0-.75-.21-.75-.69,0-1.83,3.9-4.08,5.64-4.08,1.56,0,2.82,.9,2.82,2.55,0,.51-.09,1.02-.18,1.53l-1.26,6.39c-.06,.33-.09,.6-.09,.81,0,.57,.21,.99,.84,.99,.87,0,1.77-.99,2.13-1.53,.09-.12,.18-.21,.3-.21s.18,.09,.18,.18c0,.12-.03,.24-.09,.33Zm-4.56-4.17c-2.88,.21-5.31,1.38-5.28,3.9,0,1.08,.66,1.56,1.56,1.56,1.77,0,2.91-1.53,3.24-3.12l.48-2.34Z"/><path class="cls-1" d="M134.29,85.72c-.72,1.2-2.31,2.7-3.9,2.7-.96,0-1.53-.63-1.53-1.89,0-.3,.03-.66,.12-1.05l1.35-6.96c.09-.39,.15-.81,.12-1.23-.06-.81-.45-1.32-1.35-1.32-.72,0-1.32,.27-2.04,.81-1.98,1.47-3.15,4.5-3.66,6.93l-.84,3.99c-.09,.48-.18,.51-.48,.51h-1.05c-.24,0-.42-.12-.42-.42v-.18l1.8-9.09c.09-.33,.12-.69,.12-1.02v-.21c-.03-.81-.48-1.32-1.38-1.32-.72,0-1.32,.27-2.04,.81-2.01,1.47-3.27,4.86-3.75,7.29l-.72,3.6c-.06,.3-.24,.54-.69,.54h-.87c-.24,0-.42-.12-.42-.42v-.18l1.65-8.28c.27-1.38,.27-1.89,.27-1.92,0-.57-.27-.81-.81-.81-.18,0-.39,.03-.63,.06-.18,.03-.33,.06-.45,.06-.15,0-.27-.06-.27-.24,0-.15,.09-.24,.27-.33,.69-.33,2.79-1.14,3.96-1.44,.06,0,.12-.03,.18-.03,.21,0,.33,.12,.33,.33v.15l-.84,4.11c1.2-2.16,3.18-4.56,5.91-4.56,1.5,0,2.22,.84,2.31,2.13v.33c0,.66-.12,1.32-.24,1.98l-.03,.06c1.14-2.31,3.18-4.5,5.91-4.5,1.5,0,2.22,.84,2.31,2.13v.27c0,.69-.15,1.44-.27,2.13l-1.2,5.88c-.12,.66-.27,1.8,.75,1.8,.87,0,1.77-.96,2.13-1.53,.09-.12,.18-.21,.3-.21s.18,.09,.18,.21c0,.09-.03,.21-.09,.33Z"/><path class="cls-1" d="M139.69,88.51c-2.04,0-3.6-.45-4.47-.93l3.18-16.23c-.84-.36-1.74-.81-2.91-1.38-.9-.45-1.74-.63-2.49-.63-1.35,0-2.4,.63-2.97,1.53-.33,.57-.45,1.29-.45,2.01,0,.66,.12,1.35,.27,1.83,.03,.03,.03,.06,.03,.09,0,.12-.09,.21-.18,.21s-.21-.06-.3-.27c-.42-.81-.6-1.74-.6-2.61s.21-1.77,.57-2.43c.75-1.35,2.25-2.22,4.05-2.22,.9,0,1.86,.24,2.85,.75,1.02,.54,1.83,.96,2.58,1.29,.39-1.59,1.05-2.79,1.95-3.69,.84-.84,1.86-1.29,3.18-1.29,1.83,0,2.79,1.23,2.79,3,0,2.79-2.1,4.44-4.8,4.47-.57,0-1.11-.03-1.68-.12l-1.11,5.61c1.11-1.26,2.94-2.79,4.86-2.79,2.64,0,3.78,2.13,3.78,4.53,0,4.17-3.15,9.27-8.13,9.27Zm-1.17-7.68l-.51,2.76c-.12,.66-.21,1.2-.21,1.68,0,1.71,.78,2.4,2.28,2.4,3.93,0,5.49-4.41,5.49-7.53,0-1.8-.54-3.99-2.82-3.99s-3.78,2.4-4.23,4.68Zm5.52-15.63c-.93,0-1.77,.54-2.37,1.74-.36,.69-.69,1.68-.93,2.91l-.09,.51c.63,.18,1.32,.33,1.98,.33,2.13,0,3.39-1.41,3.39-3.42,0-1.26-.69-2.07-1.98-2.07Z"/><path class="cls-1" d="M154.06,88.51c-3.21,0-4.92-2.49-4.92-5.46,0-4.02,3.21-8.43,7.92-8.43,3.18,0,4.92,2.49,4.92,5.46,0,3.99-3.21,8.43-7.92,8.43Zm-2.52-5.22c0,1.8,.66,4.44,2.94,4.44,3.69,0,5.1-4.98,5.1-7.89,0-1.86-.66-4.47-3-4.47-3.66,0-5.04,5.04-5.04,7.92Z"/><path class="cls-1" d="M176.83,96.46c-1.8,0-3.6-.57-5.34-1.35-2.04,1.44-4.77,2.25-7.17,2.25-2.04,0-4.77-.87-4.77-3.21,0-2.55,2.82-3.84,5.04-3.84,.99,0,2.07,.21,3.12,.72,.87,.42,2.49,1.32,4.26,2.16,.27-.54,.42-1.23,.42-1.83,0-1.92-2.01-2.37-3.87-2.49l-3.24-.18c-1.26-.06-2.94-.51-2.94-2.1,0-1.41,1.95-2.37,3.51-3.06-1.47-.63-2.28-1.89-2.28-3.45,0-3.06,2.79-5.4,5.91-5.4,.81,0,1.56,.18,2.19,.48,.84-1.14,2.1-2.1,3.57-2.1,.66,0,1.65,.24,1.65,1.05,0,.45-.3,.81-.78,.81-.21,0-.45-.06-.81-.33-.27-.21-.63-.39-1.11-.39-.9,0-1.59,.54-2.07,1.23,1.05,.72,1.59,1.95,1.59,3.21,0,5.1-4.74,4.89-8.16,5.73-.84,.21-1.35,.63-1.35,1.32,0,.81,.87,1.02,1.5,1.08,1.38,.09,3.03,.18,4.53,.27,2.1,.15,4.2,.78,4.2,3.12,0,1.32-.54,2.55-1.38,3.54,1.65,.72,3.39,1.29,4.74,1.29,2.22,0,4.23-1.32,4.23-3.72,0-1.44-1.11-2.55-2.04-3.03-.03-.03-.06-.06-.06-.12s.09-.15,.21-.15c.03,0,.09,0,.12,.03,1.38,.63,2.4,2.13,2.4,3.63,.03,3.33-2.85,4.83-5.82,4.83Zm-10.74-4.26c-1.2-.69-2.25-.99-3.09-.99-1.38,0-2.19,.81-2.19,2.16,0,2.25,2.73,3.12,4.92,3.12,1.74,0,3.72-.54,5.04-1.71-1.68-.81-3.27-1.8-4.68-2.58Zm-.42-12.48c0,1.59,.72,3.48,2.64,3.48,2.37,0,3.24-2.43,3.24-4.29,0-1.62-.66-3.51-2.58-3.51-2.4,0-3.3,2.4-3.3,4.32Z"/><path class="cls-1" d="M182.14,85.72c-.69,1.2-2.31,2.7-3.9,2.7-.93,0-1.53-.63-1.53-1.89,0-.3,.06-.66,.12-1.05l1.23-6.18c.12-.6,.3-1.29,.27-1.89,0-.57-.27-.81-.81-.81-.18,0-.39,.03-.63,.06-.18,.03-.33,.06-.45,.06-.15,0-.27-.06-.27-.24,0-.15,.09-.27,.27-.33,.69-.33,2.79-1.17,3.96-1.44,.06-.03,.12-.03,.18-.03,.21,0,.33,.12,.33,.33v.15l-2.01,9.96c-.06,.33-.09,.6-.09,.81,0,.57,.21,.99,.81,.99,.87,0,1.77-.96,2.16-1.53,.06-.12,.18-.21,.27-.21,.12,0,.21,.09,.21,.21,0,.09-.06,.21-.12,.33Zm-1.68-14.91c-.75,0-1.2-.51-1.2-1.23,0-.93,.66-1.86,1.71-1.86,.75,0,1.2,.51,1.2,1.23,0,.93-.63,1.86-1.71,1.86Z"/></g></g></svg>